<svg width="28" height="28" viewBox="0 0 28 28" fill="none" xmlns="http://www.w3.org/2000/svg">
<path fill-rule="evenodd" clip-rule="evenodd" d="M23.0187 2.53131C22.8546 2.36721 22.6321 2.27502 22.4 2.27502C22.1679 2.27502 21.9454 2.36721 21.7813 2.53131L19.0625 5.25005H7.875C6.42925 5.25005 5.25 6.4293 5.25 7.87505V20.125C5.25 21.5708 6.42925 22.75 7.875 22.75H20.125C21.5707 22.75 22.75 21.5708 22.75 20.125V8.93746L25.4687 6.21874C25.8104 5.87703 25.8104 5.32301 25.4687 4.98131L23.0187 2.53131ZM21 10.6875L16.1937 15.4937C16.0296 15.6578 15.8071 15.75 15.575 15.75H13.125C12.6418 15.75 12.25 15.3583 12.25 14.875V12.425C12.25 12.193 12.3422 11.9704 12.5063 11.8063L17.3125 7.00005H7.875C7.39575 7.00005 7 7.39579 7 7.87505V20.125C7 20.6043 7.39575 21 7.875 21H20.125C20.6043 21 21 20.6043 21 20.125V10.6875ZM20.04 6.74751L14 12.7875V14H15.2126L23.6126 5.60002L22.4 4.38746L20.0475 6.73999C20.045 6.74252 20.0425 6.74502 20.04 6.74751Z" fill="#3A550E"/>
</svg>
