<svg width="28" height="28" viewBox="0 0 28 28" fill="none" xmlns="http://www.w3.org/2000/svg">
<path d="M16.334 2.33337H11.6673C10.7391 2.33337 9.84882 2.70212 9.19244 3.3585C8.53607 4.01488 8.16732 4.90512 8.16732 5.83337V7.00004H5.83398C4.90573 7.00004 4.01549 7.36879 3.35911 8.02517C2.70273 8.68154 2.33398 9.57178 2.33398 10.5V22.1667C2.33398 23.095 2.70273 23.9852 3.35911 24.6416C4.01549 25.298 4.90573 25.6667 5.83398 25.6667H22.1673C23.0956 25.6667 23.9858 25.298 24.6422 24.6416C25.2986 23.9852 25.6673 23.095 25.6673 22.1667V10.5C25.6673 9.57178 25.2986 8.68154 24.6422 8.02517C23.9858 7.36879 23.0956 7.00004 22.1673 7.00004H19.834V5.83337C19.834 4.90512 19.4652 4.01488 18.8089 3.3585C18.1525 2.70212 17.2622 2.33337 16.334 2.33337ZM10.5007 5.83337C10.5007 5.52395 10.6236 5.22721 10.8424 5.00842C11.0612 4.78962 11.3579 4.66671 11.6673 4.66671H16.334C16.6434 4.66671 16.9401 4.78962 17.1589 5.00842C17.3777 5.22721 17.5006 5.52395 17.5006 5.83337V7.00004H10.5007V5.83337ZM23.334 10.5V22.1667C23.334 22.4761 23.2111 22.7729 22.9923 22.9917C22.7735 23.2105 22.4767 23.3334 22.1673 23.3334H5.83398C5.52456 23.3334 5.22782 23.2105 5.00903 22.9917C4.79023 22.7729 4.66732 22.4761 4.66732 22.1667V10.5C4.66732 10.1906 4.79023 9.89387 5.00903 9.67508C5.22782 9.45629 5.52456 9.33337 5.83398 9.33337H22.1673C22.4767 9.33337 22.7735 9.45629 22.9923 9.67508C23.2111 9.89387 23.334 10.1906 23.334 10.5ZM15.1673 15.1667H17.5006V17.5H15.1673V19.8334H12.834V17.5H10.5007V15.1667H12.834V12.8334H15.1673V15.1667Z" fill="#3A550E"/>
</svg>
