<svg width="28" height="28" viewBox="0 0 28 28" fill="none" xmlns="http://www.w3.org/2000/svg">
<path d="M24.5 9.1506V8.4759H3.5V9.1506C3.5 10.3042 4.30208 11.2845 5.33333 11.645V22.9819H3.5V24.5H24.5V22.9819H22.6667V11.6431C23.7408 11.3104 24.4749 10.3447 24.5 9.1506ZM21.1667 22.9819H15.4167V22.5602H14.4167V20.3353H16.9408L16.7742 20.3319C16.7572 19.3637 15.1852 16.853 14.924 16.2179C14.924 16.2179 15.27 14.5983 15.3345 14.5983C15.4159 14.5983 15.5502 15.2986 15.5502 15.2986H16.3576C16.3576 15.2986 16.2916 14.8993 16.1909 14.5159C16.0001 13.7891 15.7465 13.1666 15.0205 13.1666H14.5863L14.4723 12.5241H13.6945L13.5806 13.1667H13.1458C12.4368 13.1667 12.1418 13.7867 11.9754 14.516C11.8333 15.1386 11.8088 15.2987 11.8088 15.2987H12.6162C12.6162 15.2987 12.7639 14.5984 12.8318 14.5984C12.9133 14.5984 13.2288 16.187 13.2288 16.187C12.9642 16.8187 11.2458 19.3499 11.2288 20.3353H13.75V22.5602H12.75V22.9819H6.83333V11.6465C7.95017 11.3405 8.77417 10.3225 8.77417 9.09545C8.77417 9.64178 9.33708 11.7495 11.4181 11.7495C13.2255 11.7495 14.0182 10.0953 14.0182 9.09545C14.0182 10.0275 14.6357 11.7476 16.6403 11.7476C18.4513 11.7476 19.2538 9.9766 19.2538 9.09545C19.2538 10.3121 20.0643 11.3233 21.1667 11.6386V22.9819ZM24.5 7.88554H3.5L6.16667 5.18675V3.5H21.9167V5.18675H21.9027L24.5 7.88554Z" fill="#3A550E"/>
</svg>
