<svg width="28" height="28" viewBox="0 0 28 28" fill="none" xmlns="http://www.w3.org/2000/svg">
<path fill-rule="evenodd" clip-rule="evenodd" d="M2.62561 9.66033C2.65972 6.33311 5.30294 3.5 8.70025 3.5C10.7855 3.5 12.3194 4.5322 13.2983 5.50407C13.5708 5.77467 13.8047 6.04459 14.0006 6.29348C14.1964 6.04459 14.4303 5.77467 14.7029 5.50407C15.6817 4.5322 17.2156 3.5 19.3009 3.5C22.6982 3.5 25.3414 6.33311 25.3755 9.66033L25.3755 9.66057C25.4402 16.1501 20.2257 20.6396 14.9844 24.1973C14.9843 24.1974 14.9843 24.1974 14.9842 24.1975C14.694 24.3946 14.3514 24.5001 14.0006 24.5001C13.6498 24.5001 13.3071 24.3947 13.017 24.1975C7.7751 20.6398 2.56031 16.1502 2.62561 9.66049L2.62561 9.66033ZM4.37552 9.67827C4.32059 15.1465 8.71217 19.1608 13.9998 22.7495L14.0006 22.7501L14.0013 22.7495C19.2883 19.1608 23.68 15.1465 23.6256 9.67827C23.6007 7.2447 21.6742 5.25 19.3009 5.25C17.8358 5.25 16.7196 5.9678 15.9358 6.74593C15.5458 7.13315 15.2522 7.52258 15.0567 7.81469C14.9595 7.96003 14.8879 8.07926 14.8421 8.15932C14.8192 8.19929 14.8028 8.22932 14.793 8.24775C14.7881 8.25695 14.7848 8.26325 14.7832 8.26642C14.7827 8.26726 14.7824 8.26789 14.7822 8.26828L14.7823 8.26817L14.7825 8.26776C14.7823 8.26802 14.7822 8.26828 14.7821 8.26854C14.6334 8.56368 14.3312 8.75 14.0006 8.75C13.67 8.75 13.3677 8.56371 13.2191 8.26861C13.2189 8.26829 13.2186 8.26755 13.218 8.26641C13.2163 8.26325 13.2131 8.25695 13.2081 8.24775C13.1983 8.22932 13.1819 8.19929 13.1591 8.15932C13.1132 8.07926 13.0416 7.96003 12.9444 7.81469C12.749 7.52258 12.4553 7.13315 12.0653 6.74593C11.2815 5.9678 10.1653 5.25 8.70025 5.25C6.32699 5.25 4.40056 7.24461 4.37552 9.6781M13.2186 8.26762C13.2185 8.26746 13.2184 8.2673 13.2184 8.26715L13.2185 8.2674M14.7825 8.26776L14.7826 8.2674L14.7829 8.26698C14.7827 8.26724 14.7826 8.2675 14.7825 8.26776Z" fill="#3A550E"/>
<path fill-rule="evenodd" clip-rule="evenodd" d="M11.4502 7.87826C11.8076 7.9091 12.11 8.15498 12.2131 8.49859L14.2041 15.1353L15.8424 11.8587C15.9906 11.5623 16.2936 11.375 16.625 11.375C16.9564 11.375 17.2594 11.5623 17.4076 11.8587L18.9158 14.875H25.375C25.8582 14.875 26.25 15.2668 26.25 15.75C26.25 16.2333 25.8582 16.625 25.375 16.625H18.375C18.0436 16.625 17.7406 16.4378 17.5924 16.1413L16.625 14.2066L14.7826 17.8913C14.6222 18.2122 14.2822 18.4026 13.9248 18.3718C13.5674 18.3409 13.265 18.095 13.1619 17.7514L11.1709 11.1148L9.53262 14.3913C9.38441 14.6878 9.08143 14.875 8.75 14.875H2.625C2.14175 14.875 1.75 14.4833 1.75 14C1.75 13.5168 2.14175 13.125 2.625 13.125H8.20922L10.5924 8.3587C10.7528 8.03784 11.0928 7.84741 11.4502 7.87826Z" fill="#3A550E"/>
</svg>
