<svg width="28" height="28" viewBox="0 0 28 28" fill="none" xmlns="http://www.w3.org/2000/svg">
<path fill-rule="evenodd" clip-rule="evenodd" d="M11.0914 20.5568C11.718 22.4469 14.3403 22.5169 14.929 20.5568C15.6221 21.1966 17.6747 21.3249 18.4399 21.7605C18.6811 21.8985 18.8994 22.0755 19.0741 22.3108C19.245 22.5402 19.4976 23.0535 19.5982 23.5455H6.42218C6.52092 23.0535 6.77537 22.5402 6.94626 22.3108C7.12285 22.0735 7.33932 21.8985 7.58047 21.7605C8.34571 21.323 10.3965 21.1946 11.0914 20.5568ZM20.3616 7.46659L23.4624 7.50937C23.7662 7.51326 24.051 7.57548 24.3168 7.69021C24.5789 7.80493 24.82 7.97604 25.0346 8.2016C25.2492 8.42716 25.4087 8.678 25.515 8.94828C25.6194 9.22051 25.6726 9.51413 25.6669 9.82913L25.6213 13.2786C25.6175 13.5936 25.5568 13.8853 25.4447 14.1537C25.3327 14.422 25.1656 14.6689 24.9453 14.8867C24.7251 15.1045 24.482 15.2659 24.2162 15.3787C24.0491 15.4467 23.8725 15.4934 23.6883 15.5167C23.675 16.8176 23.4301 18.1457 22.9231 19.4426C22.8148 19.7188 22.5091 19.8529 22.2395 19.7421C21.9699 19.6313 21.8388 19.3182 21.9471 19.0421C22.4028 17.8754 22.6231 16.6873 22.6383 15.5245L22.2376 15.5187C22.0401 15.7695 21.8237 16.0048 21.5958 16.2187C21.3243 16.4715 21.0337 16.699 20.7242 16.8993C20.4147 17.1034 20.0824 17.2804 19.7292 17.4301C19.5128 17.5234 19.2849 17.6071 19.0514 17.6809C18.9393 17.9493 18.6393 18.0776 18.3735 17.9687C18.1038 17.8579 17.9728 17.5448 18.081 17.2687C18.3146 16.6718 18.438 16.0631 18.4665 15.4603L18.3355 15.4584C18.0317 15.4545 17.7469 15.3923 17.481 15.2776C17.219 15.1628 16.9778 14.9917 16.7652 14.7662C16.5525 14.5406 16.3911 14.2917 16.2847 14.0195C16.1803 13.7434 16.1271 13.4498 16.1328 13.1386L16.167 10.6244C15.8233 10.3716 15.4474 10.1597 15.0429 9.99441C14.4258 9.74163 13.7422 9.59968 13.0111 9.59968C11.5035 9.59968 10.1382 10.2258 9.15081 11.2369C8.16342 12.2481 7.55199 13.6461 7.55199 15.1901C7.55199 15.5479 7.58427 15.894 7.64313 16.2245C7.7058 16.5687 7.79884 16.9032 7.92037 17.2201C8.0248 17.4962 7.88998 17.8073 7.62035 17.9143C7.35071 18.0212 7.0469 17.8832 6.94246 17.6071C6.79815 17.2259 6.68612 16.8293 6.61207 16.4229C6.53801 16.0184 6.50003 15.6062 6.50003 15.1901C6.50003 13.3486 7.22919 11.6822 8.40837 10.4747C9.58754 9.26718 11.2148 8.5205 13.013 8.5205C13.8789 8.5205 14.6935 8.68967 15.436 8.99495C15.7018 9.10384 15.9581 9.23023 16.205 9.37218C16.2316 9.17579 16.2828 8.98912 16.3569 8.81023C16.4689 8.54189 16.636 8.29494 16.8563 8.07716C17.0747 7.85743 17.3196 7.69409 17.5855 7.5852C17.8513 7.47826 18.138 7.42381 18.4456 7.42964L18.7096 7.43353C18.0659 6.94547 17.3576 6.53518 16.5943 6.22212C15.5005 5.78267 14.2967 5.53378 13.0093 5.53378C10.3528 5.53378 7.94695 6.6363 6.20571 8.41939C4.46448 10.2025 3.38784 12.6661 3.38784 15.3865C3.38784 16.0145 3.4448 16.6231 3.55114 17.2104C3.66127 17.8171 3.82647 18.4043 4.03914 18.9643C4.14358 19.2404 4.00876 19.5515 3.73912 19.6585C3.46949 19.7654 3.16568 19.6274 3.06124 19.3513C2.82388 18.7271 2.6416 18.0776 2.52007 17.4087C2.39665 16.7476 2.33398 16.0709 2.33398 15.3865C2.33398 12.3686 3.52835 9.63469 5.46137 7.65715C7.39249 5.67767 10.0623 4.45459 13.0093 4.45459C14.4296 4.45459 15.7664 4.73265 16.9816 5.23044C18.2595 5.7535 19.3988 6.52157 20.3616 7.46659ZM21.8901 8.13549L20.9768 8.12188L19.49 8.10049L18.438 8.08493C18.2121 8.08105 18.0051 8.11799 17.8171 8.19577C17.6291 8.27355 17.4544 8.39022 17.2968 8.54772C17.1392 8.70522 17.0196 8.88023 16.9398 9.07079C16.8601 9.26135 16.8183 9.47329 16.8145 9.70274L16.8126 9.77858L16.7974 10.8753L16.7671 13.1523C16.7633 13.3836 16.8012 13.5956 16.8753 13.7881C16.9512 13.9806 17.0652 14.1595 17.219 14.3209C17.3766 14.4823 17.5494 14.6087 17.7336 14.6864C17.9196 14.7681 18.1209 14.8109 18.3469 14.8148L19.828 14.8362C20.0008 14.8381 20.1413 14.9878 20.1394 15.1648C20.1394 15.2056 20.1299 15.2406 20.1204 15.2756C20.0615 15.4876 19.9989 15.6995 19.9248 15.9037C19.8489 16.1195 19.7672 16.3237 19.678 16.5201C19.6324 16.6212 19.5792 16.7184 19.5223 16.8195C19.828 16.6873 20.1147 16.5298 20.3824 16.3568C20.6616 16.174 20.9255 15.9698 21.1667 15.7462C21.4116 15.5187 21.6319 15.2698 21.835 15.0015C21.8977 14.9178 21.9927 14.8751 22.0876 14.877L22.6345 14.8848L23.3617 14.8945H23.3674H23.3731H23.3788H23.3845H23.3883H23.394H23.3959H23.3997H23.4054H23.4073H23.4111H23.4168H23.4187H23.4263H23.4282H23.432H23.4377H23.4396H23.4415H23.4472H23.4491H23.451H23.4567H23.4605H23.4624H23.4681H23.4718H23.4737H23.4794H23.4832H23.4851H23.4908H23.4946H23.4965H23.5022H23.506H23.5079H23.5136H23.5174H23.5231H23.5288H23.5345H23.5402H23.5459H23.5516H23.5554H23.5611H23.563H23.5668H23.5725H23.5744H23.5782H23.5839H23.5858H23.5896H23.5953H23.5972H23.601H23.6067H23.6086H23.6105H23.6162H23.6181H23.62H23.6257H23.6276H23.6295H23.6351H23.6389H23.6408H23.6465H23.6503H23.6522H23.6579H23.6617H23.6636H23.6674H23.6712H23.6769H23.6807H23.6864H23.6902H23.694H23.6997C23.806 14.877 23.9067 14.8459 24.0035 14.807C24.1915 14.7292 24.3662 14.6126 24.5276 14.4551C24.6852 14.2975 24.8048 14.1225 24.8846 13.932C24.9643 13.7414 25.0061 13.5295 25.0099 13.3L25.0555 9.85052C25.0593 9.61913 25.0232 9.40718 24.9472 9.21468C24.8713 9.02217 24.7574 8.84328 24.6036 8.68189C24.4497 8.5205 24.2789 8.398 24.0928 8.31633C23.9067 8.23466 23.6997 8.19188 23.4756 8.18799L21.9129 8.1666V8.13549H21.8901ZM10.611 16.6387C10.48 16.6445 10.3813 16.6718 10.311 16.7184C10.273 16.7457 10.2426 16.7787 10.2256 16.8195C10.2047 16.8643 10.1952 16.9187 10.1971 16.9809C10.2028 17.1657 10.2958 17.4068 10.48 17.6868L10.4819 17.6907L11.0743 18.6571C11.3117 19.044 11.5623 19.4407 11.8718 19.7304C12.17 20.0085 12.5307 20.199 13.0093 20.199C13.5276 20.201 13.9055 20.0046 14.2131 19.709C14.5321 19.4018 14.7866 18.9818 15.0334 18.5637L15.7018 17.4359C15.8252 17.1443 15.8727 16.9498 15.8423 16.8351C15.8252 16.767 15.7531 16.734 15.6277 16.7281C15.6012 16.7262 15.5746 16.7262 15.5461 16.7262C15.5157 16.7282 15.4853 16.7301 15.4531 16.732C15.4341 16.734 15.417 16.732 15.4018 16.7281C15.3429 16.732 15.2803 16.7262 15.2195 16.7184L15.4493 15.6801C13.7517 15.9542 12.4795 14.6631 10.6851 15.4215L10.8142 16.6445C10.742 16.6504 10.6737 16.6484 10.611 16.6387ZM15.8594 16.4209C16.0227 16.4734 16.129 16.5784 16.1727 16.7534C16.2202 16.944 16.1689 17.2143 16.0094 17.5837C16.0056 17.5896 16.0018 17.5973 15.9999 17.6032L15.3239 18.7446C15.0638 19.184 14.798 19.6254 14.4467 19.9638C14.0802 20.3138 13.6302 20.5471 13.0149 20.5452C12.4396 20.5452 12.0067 20.3196 11.6516 19.9871C11.3079 19.6663 11.0459 19.2501 10.7952 18.8437L10.2009 17.8773C9.9844 17.5448 9.87047 17.2434 9.86478 16.9945C9.86098 16.8779 9.87997 16.7709 9.92174 16.6776C9.96541 16.5804 10.0338 16.4987 10.1249 16.4345C10.1686 16.4054 10.2161 16.3801 10.2692 16.3606C10.2313 15.8376 10.2161 15.1765 10.2407 14.6242C10.254 14.4939 10.2787 14.3617 10.3129 14.2314C10.4648 13.6773 10.8446 13.23 11.3155 12.9228C11.5756 12.7536 11.8586 12.6253 12.1567 12.5397C12.3447 12.4853 11.9953 11.8669 12.1909 11.8475C13.1327 11.7483 14.6574 12.6292 15.3144 13.3584C15.6429 13.7239 15.8499 14.2062 15.8955 14.8478L15.8594 16.4209Z" fill="#3A550E"/>
</svg>
