<svg width="16" height="17" viewBox="0 0 16 17" fill="none" xmlns="http://www.w3.org/2000/svg">
<g clip-path="url(#clip0_123_13)">
<path d="M8 15.9667L7.6 15.6334C5.8 14.3001 0 9.50008 0 5.36675C0 3.03341 1.93333 1.16675 4.33333 1.16675C5.8 1.16675 7.2 1.90008 8 3.10008C8.8 1.90008 10.2 1.16675 11.6667 1.16675C14.0667 1.16675 16 3.03341 16 5.36675C16 9.56675 10.2 14.3001 8.4 15.7001L8 15.9667ZM4.33333 2.43341C2.66667 2.43341 1.33333 3.70008 1.33333 5.30008C1.33333 8.03341 4.73333 11.6334 8 14.2334C11.2667 11.6334 14.6667 8.03341 14.6667 5.30008C14.6667 3.70008 13.3333 2.43341 11.6667 2.43341C10.6 2.43341 9.66667 2.96675 9.13333 3.76675L8 5.56675L6.86667 3.83341C6.33333 2.96675 5.4 2.43341 4.33333 2.43341Z" fill="#0D0D0D"/>
</g>
<defs>
<clipPath id="clip0_123_13">
<rect width="16" height="16" fill="white" transform="translate(0 0.5)"/>
</clipPath>
</defs>
</svg>
