<svg width="48" height="48" viewBox="0 0 48 48" fill="none" xmlns="http://www.w3.org/2000/svg">
<path fill-rule="evenodd" clip-rule="evenodd" d="M18.2222 18.2222C18.2222 15.0312 20.809 12.4444 24 12.4444C27.191 12.4444 29.7778 15.0312 29.7778 18.2222C29.7778 21.4123 27.1925 23.9985 24.0028 24C24.0019 24 24.0009 24 24 24C20.809 24 18.2222 21.4132 18.2222 18.2222ZM18.7408 25.1113C16.6695 23.5276 15.3333 21.031 15.3333 18.2222C15.3333 13.4358 19.2135 9.55556 24 9.55556C28.7865 9.55556 32.6667 13.4358 32.6667 18.2222C32.6667 21.031 31.3305 23.5276 29.2592 25.1113C30.7116 25.7538 32.0477 26.6629 33.1924 27.8076C35.6304 30.2456 37 33.5522 37 37C37 37.7977 36.3533 38.4444 35.5556 38.4444C34.7578 38.4444 34.1111 37.7977 34.1111 37C34.1111 34.3184 33.0458 31.7466 31.1496 29.8504C29.2534 27.9542 26.6816 26.8889 24 26.8889C21.3184 26.8889 18.7466 27.9542 16.8504 29.8504C14.9542 31.7466 13.8889 34.3184 13.8889 37C13.8889 37.7977 13.2422 38.4444 12.4444 38.4444C11.6467 38.4444 11 37.7977 11 37C11 33.5522 12.3696 30.2456 14.8076 27.8076C15.9523 26.6629 17.2884 25.7538 18.7408 25.1113Z" fill="#0D0D0D"/>
</svg>
