<svg width="48" height="48" viewBox="0 0 48 48" fill="none" xmlns="http://www.w3.org/2000/svg">
<path d="M32.4 32.4C33.1426 32.4 33.8548 32.695 34.3799 33.2201C34.905 33.7452 35.2 34.4574 35.2 35.2C35.2 35.9426 34.905 36.6548 34.3799 37.1799C33.8548 37.705 33.1426 38 32.4 38C31.6574 38 30.9452 37.705 30.4201 37.1799C29.895 36.6548 29.6 35.9426 29.6 35.2C29.6 33.646 30.846 32.4 32.4 32.4ZM10 10H14.578L15.894 12.8H36.6C36.9713 12.8 37.3274 12.9475 37.59 13.2101C37.8525 13.4726 38 13.8287 38 14.2C38 14.438 37.93 14.676 37.832 14.9L32.82 23.958C32.344 24.812 31.42 25.4 30.37 25.4H19.94L18.68 27.682L18.638 27.85C18.638 27.9428 18.6749 28.0318 18.7405 28.0975C18.8062 28.1631 18.8952 28.2 18.988 28.2H35.2V31H18.4C17.6574 31 16.9452 30.705 16.4201 30.1799C15.895 29.6548 15.6 28.9426 15.6 28.2C15.6 27.71 15.726 27.248 15.936 26.856L17.84 23.426L12.8 12.8H10V10ZM18.4 32.4C19.1426 32.4 19.8548 32.695 20.3799 33.2201C20.905 33.7452 21.2 34.4574 21.2 35.2C21.2 35.9426 20.905 36.6548 20.3799 37.1799C19.8548 37.705 19.1426 38 18.4 38C17.6574 38 16.9452 37.705 16.4201 37.1799C15.895 36.6548 15.6 35.9426 15.6 35.2C15.6 33.646 16.846 32.4 18.4 32.4ZM31 22.6L34.892 15.6H17.196L20.5 22.6H31Z" fill="#0D0D0D"/>
<path d="M29 13C29 8.58172 32.5817 5 37 5C41.4183 5 45 8.58172 45 13C45 17.4183 41.4183 21 37 21C32.5817 21 29 17.4183 29 13Z" fill="#3A550E"/>
<path d="M39.0537 12.3789V13.4629C39.0537 14.0456 39.0016 14.5371 38.8975 14.9375C38.7933 15.3379 38.6436 15.6602 38.4482 15.9043C38.2529 16.1484 38.0169 16.3258 37.7402 16.4365C37.4668 16.5439 37.1576 16.5977 36.8125 16.5977C36.5391 16.5977 36.2868 16.5635 36.0557 16.4951C35.8245 16.4268 35.6162 16.3177 35.4307 16.168C35.2484 16.015 35.0921 15.8164 34.9619 15.5723C34.8317 15.3281 34.7324 15.0319 34.6641 14.6836C34.5957 14.3353 34.5615 13.9284 34.5615 13.4629V12.3789C34.5615 11.7962 34.6136 11.3079 34.7178 10.9141C34.8252 10.5202 34.9766 10.2044 35.1719 9.9668C35.3672 9.72591 35.6016 9.55339 35.875 9.44922C36.1517 9.34505 36.4609 9.29297 36.8027 9.29297C37.0794 9.29297 37.3333 9.32715 37.5645 9.39551C37.7988 9.46061 38.0072 9.56641 38.1895 9.71289C38.3717 9.85612 38.5264 10.0482 38.6533 10.2891C38.7835 10.5267 38.8828 10.818 38.9512 11.1631C39.0195 11.5081 39.0537 11.9134 39.0537 12.3789ZM38.1455 13.6094V12.2275C38.1455 11.9085 38.126 11.6286 38.0869 11.3877C38.0511 11.1436 37.9974 10.9352 37.9258 10.7627C37.8542 10.5902 37.763 10.4502 37.6523 10.3428C37.5449 10.2354 37.4196 10.1572 37.2764 10.1084C37.1364 10.0563 36.9785 10.0303 36.8027 10.0303C36.5879 10.0303 36.3975 10.071 36.2314 10.1523C36.0654 10.2305 35.9255 10.3558 35.8115 10.5283C35.7008 10.7008 35.6162 10.9271 35.5576 11.207C35.499 11.487 35.4697 11.8271 35.4697 12.2275V13.6094C35.4697 13.9284 35.4876 14.21 35.5234 14.4541C35.5625 14.6982 35.6195 14.9098 35.6943 15.0889C35.7692 15.2646 35.8604 15.4095 35.9678 15.5234C36.0752 15.6374 36.1989 15.722 36.3389 15.7773C36.4821 15.8294 36.64 15.8555 36.8125 15.8555C37.0339 15.8555 37.2275 15.8132 37.3936 15.7285C37.5596 15.6439 37.6979 15.512 37.8086 15.333C37.9225 15.1507 38.0072 14.918 38.0625 14.6348C38.1178 14.3483 38.1455 14.0065 38.1455 13.6094Z" fill="white"/>
</svg>
