<svg width="24" height="28" viewBox="0 0 24 28" fill="none" xmlns="http://www.w3.org/2000/svg">
<path d="M6.80859 5H17.1899C18.2373 5 19.1895 5.5112 19.8794 6.33295L19.9116 6.37482C20.5825 7.19308 20.9985 8.31143 20.9985 9.53795V18.4638C20.9985 19.7113 20.5693 20.8453 19.8794 21.6671C19.1895 22.4888 18.2373 23 17.1899 23H6.80859C5.7627 23 4.81055 22.4888 4.12061 21.6671H4.11914C3.4292 20.8453 3 19.7113 3 18.4621V9.5362C3 8.29224 3.42773 7.15819 4.11914 6.33469L4.12207 6.32946C4.81348 5.50945 5.76416 5 6.80859 5ZM9.05127 10.1887H14.9487C15.2783 10.1887 15.5479 10.5097 15.5479 10.9023C15.5479 11.2949 15.2783 11.6159 14.9487 11.6159H9.05127C8.72168 11.6159 8.45215 11.2949 8.45215 10.9023C8.45215 10.5097 8.72168 10.1887 9.05127 10.1887ZM9.05127 16.3841H14.9487C15.2783 16.3841 15.5479 16.7051 15.5479 17.0977C15.5479 17.4903 15.2783 17.8113 14.9487 17.8113H9.05127C8.72168 17.8113 8.45215 17.4903 8.45215 17.0977C8.45215 16.7051 8.72168 16.3841 9.05127 16.3841ZM9.05127 13.2873H14.9487C15.2783 13.2873 15.5479 13.6083 15.5479 14.0009C15.5479 14.3934 15.2783 14.7145 14.9487 14.7145H9.05127C8.72168 14.7145 8.45215 14.3934 8.45215 14.0009C8.45215 13.6083 8.72168 13.2873 9.05127 13.2873ZM17.1914 6.43065H6.80859C6.09082 6.43065 5.43897 6.77959 4.96729 7.34138L4.96436 7.34487C4.49414 7.90491 4.20117 8.6813 4.20117 9.5362V18.4621C4.20117 19.3152 4.49561 20.0916 4.96729 20.6534L4.96582 20.6551C5.43897 21.2169 6.09082 21.5676 6.80713 21.5676H17.1885C17.9033 21.5676 18.5552 21.2169 19.0283 20.6534C19.5015 20.0899 19.7959 19.3135 19.7959 18.4621V9.5362C19.7959 8.69875 19.5132 7.93632 19.0576 7.37453L19.0298 7.34312C18.5581 6.78133 17.9077 6.43065 17.1914 6.43065Z" fill="#3A550E"/>
</svg>
