<svg width="28" height="28" viewBox="0 0 28 28" fill="none" xmlns="http://www.w3.org/2000/svg">
<path d="M18.738 1.53125H9.26172C8.56553 1.53125 7.89785 1.80781 7.40556 2.30009C6.91328 2.79238 6.63672 3.46006 6.63672 4.15625V12.5387C6.63672 13.2349 6.91328 13.9026 7.40556 14.3949C7.89785 14.8872 8.56553 15.1637 9.26172 15.1637H10.2373L13.6673 19.2019C13.7252 19.2694 13.8022 19.3177 13.8882 19.3404C13.9741 19.3631 14.065 19.359 14.1486 19.3288C14.2334 19.2986 14.3068 19.2428 14.3585 19.1692C14.4103 19.0955 14.4378 19.0075 14.4373 18.9175V15.1637H18.738C19.4342 15.1637 20.1018 14.8872 20.5941 14.3949C21.0864 13.9026 21.363 13.2349 21.363 12.5387V4.15625C21.363 3.46006 21.0864 2.79238 20.5941 2.30009C20.1018 1.80781 19.4342 1.53125 18.738 1.53125ZM20.488 12.5387C20.488 13.0029 20.3036 13.448 19.9754 13.7762C19.6472 14.1044 19.2021 14.2887 18.738 14.2887H13.9998C13.8838 14.2887 13.7725 14.3348 13.6905 14.4169C13.6084 14.4989 13.5623 14.6102 13.5623 14.7262V17.7275L10.7711 14.4419C10.7298 14.3941 10.6788 14.3557 10.6214 14.3293C10.5641 14.3029 10.5017 14.2891 10.4386 14.2887H9.26172C8.79759 14.2887 8.35247 14.1044 8.02428 13.7762C7.69609 13.448 7.51172 13.0029 7.51172 12.5387V4.15625C7.51172 3.69212 7.69609 3.247 8.02428 2.91881C8.35247 2.59062 8.79759 2.40625 9.26172 2.40625H18.738C19.2021 2.40625 19.6472 2.59062 19.9754 2.91881C20.3036 3.247 20.488 3.69212 20.488 4.15625V12.5387Z" fill="#3A550E"/>
<path d="M19.5384 4.70312C19.5384 4.81916 19.4923 4.93044 19.4103 5.01248C19.3282 5.09453 19.217 5.14062 19.1009 5.14062H8.89844C8.78241 5.14062 8.67113 5.09453 8.58908 5.01248C8.50703 4.93044 8.46094 4.81916 8.46094 4.70312C8.46094 4.58709 8.50703 4.47581 8.58908 4.39377C8.67113 4.31172 8.78241 4.26562 8.89844 4.26562H19.1009C19.217 4.26562 19.3282 4.31172 19.4103 4.39377C19.4923 4.47581 19.5384 4.58709 19.5384 4.70312Z" fill="#3A550E"/>
<path d="M19.5384 6.52749C19.5384 6.64352 19.4923 6.7548 19.4103 6.83685C19.3282 6.91889 19.217 6.96499 19.1009 6.96499H8.89844C8.78241 6.96499 8.67113 6.91889 8.58908 6.83685C8.50703 6.7548 8.46094 6.64352 8.46094 6.52749C8.46094 6.41146 8.50703 6.30018 8.58908 6.21813C8.67113 6.13608 8.78241 6.08999 8.89844 6.08999H19.1009C19.1586 6.0894 19.2157 6.10032 19.2691 6.1221C19.3224 6.14388 19.3709 6.17608 19.4116 6.21683C19.4523 6.25757 19.4845 6.30603 19.5063 6.35937C19.5281 6.41272 19.539 6.46987 19.5384 6.52749Z" fill="#3A550E"/>
<path d="M19.5384 8.34753C19.5384 8.46357 19.4923 8.57485 19.4103 8.65689C19.3282 8.73894 19.217 8.78503 19.1009 8.78503H8.89844C8.78241 8.78503 8.67113 8.73894 8.58908 8.65689C8.50703 8.57485 8.46094 8.46357 8.46094 8.34753C8.46094 8.2315 8.50703 8.12022 8.58908 8.03817C8.67113 7.95613 8.78241 7.91003 8.89844 7.91003H19.1009C19.217 7.91003 19.3282 7.95613 19.4103 8.03817C19.4923 8.12022 19.5384 8.2315 19.5384 8.34753Z" fill="#3A550E"/>
<path d="M19.5386 10.1719C19.5386 10.2879 19.4925 10.3992 19.4105 10.4813C19.3284 10.5633 19.2171 10.6094 19.1011 10.6094H12.543C12.4269 10.6094 12.3157 10.5633 12.2336 10.4813C12.1516 10.3992 12.1055 10.2879 12.1055 10.1719C12.1055 10.0559 12.1516 9.94458 12.2336 9.86254C12.3157 9.78049 12.4269 9.7344 12.543 9.7344H19.1011C19.1587 9.73381 19.2159 9.74473 19.2692 9.76651C19.3226 9.78829 19.371 9.82049 19.4118 9.86123C19.4525 9.90198 19.4847 9.95044 19.5065 10.0038C19.5283 10.0571 19.5392 10.1143 19.5386 10.1719Z" fill="#3A550E"/>
<path d="M19.5386 11.9918C19.5386 12.1079 19.4925 12.2191 19.4105 12.3012C19.3284 12.3832 19.2171 12.4293 19.1011 12.4293H12.543C12.4269 12.4293 12.3157 12.3832 12.2336 12.3012C12.1516 12.2191 12.1055 12.1079 12.1055 11.9918C12.1055 11.8758 12.1516 11.7645 12.2336 11.6825C12.3157 11.6004 12.4269 11.5543 12.543 11.5543H19.1011C19.2171 11.5543 19.3284 11.6004 19.4105 11.6825C19.4925 11.7645 19.5386 11.8758 19.5386 11.9918Z" fill="#3A550E"/>
<path d="M8.15992 20.3656C8.1308 20.2782 8.07508 20.2021 8.00054 20.148C7.92601 20.0938 7.83641 20.0644 7.7443 20.0637H5.93742L5.37742 18.3443C5.34866 18.2568 5.29299 18.1806 5.21835 18.1266C5.14372 18.0725 5.05394 18.0435 4.9618 18.0435C4.86966 18.0435 4.77988 18.0725 4.70525 18.1266C4.63061 18.1806 4.57494 18.2568 4.54618 18.3443L3.98617 20.0637H2.1793C2.08671 20.0634 1.99641 20.0924 1.92138 20.1467C1.84635 20.2009 1.79047 20.2776 1.76178 20.3656C1.73308 20.4537 1.73305 20.5485 1.7617 20.6366C1.79034 20.7246 1.84618 20.8013 1.92118 20.8556L3.38243 21.9187L2.8268 23.6337C2.80539 23.6994 2.79983 23.7692 2.81057 23.8374C2.8213 23.9056 2.84804 23.9703 2.88857 24.0262C2.92911 24.0821 2.98231 24.1276 3.04381 24.159C3.10531 24.1904 3.17337 24.2068 3.24243 24.2068C3.33505 24.2069 3.42535 24.1778 3.50055 24.1237L4.9618 23.0606L6.42305 24.1237C6.49755 24.1776 6.58713 24.2066 6.67907 24.2067C6.77101 24.2068 6.86064 24.1779 6.93522 24.1241C7.0098 24.0704 7.06556 23.9945 7.09456 23.9072C7.12357 23.82 7.12435 23.7258 7.0968 23.6381L6.5368 21.9187L8.00243 20.8556C8.07647 20.8005 8.13145 20.7237 8.15969 20.6358C8.18793 20.548 8.18801 20.4535 8.15992 20.3656ZM5.6093 21.8837L5.84993 22.6275L5.21993 22.1681C5.14527 22.1127 5.05477 22.0828 4.9618 22.0828C4.86883 22.0828 4.77833 22.1127 4.70368 22.1681L4.07368 22.6275L4.3143 21.8837C4.34273 21.7965 4.3428 21.7026 4.31451 21.6153C4.28621 21.5281 4.231 21.452 4.1568 21.3981L3.5268 20.9387H4.30555C4.39766 20.9381 4.48726 20.9086 4.56179 20.8545C4.63632 20.8003 4.69205 20.7242 4.72117 20.6368L4.9618 19.8931L5.20243 20.6368C5.23103 20.7246 5.28662 20.801 5.36127 20.8552C5.43592 20.9094 5.52579 20.9387 5.61805 20.9387H6.3968L5.7668 21.3981C5.69179 21.4513 5.63596 21.5273 5.60758 21.6148C5.57921 21.7023 5.57981 21.7966 5.6093 21.8837Z" fill="#3A550E"/>
<path d="M17.199 22.6232C17.1704 22.5355 17.1148 22.459 17.0401 22.4048C16.9655 22.3506 16.8756 22.3214 16.7834 22.3213H14.9765L14.4165 20.6019C14.3877 20.5144 14.332 20.4382 14.2574 20.3841C14.1828 20.3301 14.093 20.301 14.0009 20.301C13.9087 20.301 13.8189 20.3301 13.7443 20.3841C13.6697 20.4382 13.614 20.5144 13.5852 20.6019L13.0252 22.3213H11.2184C11.1258 22.321 11.0355 22.35 10.9604 22.4043C10.8854 22.4585 10.8295 22.5352 10.8008 22.6232C10.7721 22.7112 10.7721 22.8061 10.8008 22.8941C10.8294 22.9822 10.8852 23.0589 10.9602 23.1132L12.4259 24.1763L11.8659 25.8957C11.8378 25.9836 11.8379 26.0781 11.8661 26.1659C11.8943 26.2538 11.9493 26.3306 12.0234 26.3857C12.0989 26.439 12.189 26.4677 12.2815 26.4677C12.3739 26.4677 12.4641 26.439 12.5396 26.3857L14.0009 25.3225L15.4621 26.3857C15.5373 26.4397 15.6276 26.4688 15.7202 26.4688C15.8129 26.4688 15.9031 26.4397 15.9784 26.3857C16.0524 26.3306 16.1074 26.2538 16.1356 26.1659C16.1639 26.0781 16.1639 25.9836 16.1359 25.8957L15.5759 24.1763L17.0415 23.1132C17.1162 23.0586 17.1716 22.9818 17.1999 22.8938C17.2282 22.8057 17.2279 22.711 17.199 22.6232ZM14.6484 24.1457L14.889 24.885L14.259 24.4257C14.1838 24.3716 14.0935 24.3425 14.0009 24.3425C13.9082 24.3425 13.818 24.3716 13.7427 24.4257L13.1127 24.885L13.3534 24.1457C13.3828 24.0579 13.3834 23.963 13.3551 23.8748C13.3268 23.7866 13.271 23.7099 13.1959 23.6557L12.5659 23.1963H13.3446C13.4369 23.1962 13.5267 23.167 13.6014 23.1128C13.676 23.0586 13.7316 22.9821 13.7602 22.8944L14.0009 22.155L14.2415 22.8944C14.2701 22.9821 14.3257 23.0586 14.4003 23.1128C14.475 23.167 14.5649 23.1962 14.6571 23.1963H15.4359L14.8059 23.6557C14.7308 23.7099 14.675 23.7866 14.6466 23.8748C14.6183 23.963 14.6189 24.0579 14.6484 24.1457Z" fill="#3A550E"/>
<path d="M26.2381 20.3656C26.21 20.2776 26.1545 20.2008 26.0798 20.1465C26.005 20.0922 25.9148 20.0632 25.8224 20.0637H24.0155L23.4556 18.3443C23.4268 18.2568 23.3711 18.1806 23.2965 18.1266C23.2218 18.0725 23.1321 18.0435 23.0399 18.0435C22.9478 18.0435 22.858 18.0725 22.7834 18.1266C22.7087 18.1806 22.6531 18.2568 22.6243 18.3443L22.0643 20.0637H20.2574C20.1648 20.0634 20.0745 20.0924 19.9995 20.1467C19.9245 20.2009 19.8686 20.2776 19.8399 20.3656C19.8112 20.4537 19.8112 20.5485 19.8398 20.6366C19.8685 20.7246 19.9243 20.8013 19.9993 20.8556L21.4649 21.9187L20.9049 23.6381C20.8774 23.7258 20.8782 23.82 20.9072 23.9072C20.9362 23.9945 20.9919 24.0704 21.0665 24.1241C21.1411 24.1779 21.2307 24.2068 21.3227 24.2067C21.4146 24.2066 21.5042 24.1776 21.5787 24.1237L23.0399 23.0606L24.5012 24.1237C24.5764 24.1778 24.6667 24.2069 24.7593 24.2068C24.8521 24.2082 24.9428 24.179 25.0174 24.1237C25.0928 24.0698 25.1488 23.993 25.1772 23.9048C25.2055 23.8165 25.2047 23.7215 25.1749 23.6337L24.6193 21.9187L26.0806 20.8556C26.1552 20.801 26.2107 20.7242 26.239 20.6362C26.2673 20.5482 26.267 20.4534 26.2381 20.3656ZM23.6874 21.8837L23.928 22.6275L23.2981 22.1681C23.2232 22.1134 23.1327 22.0843 23.0399 22.085C22.9473 22.0849 22.857 22.114 22.7818 22.1681L22.1518 22.6275L22.3924 21.8837C22.4219 21.7966 22.4225 21.7023 22.3941 21.6148C22.3658 21.5273 22.3099 21.4513 22.2349 21.3981L21.6049 20.9387H22.3837C22.4759 20.9387 22.5658 20.9094 22.6405 20.8552C22.7151 20.801 22.7707 20.7246 22.7993 20.6368L23.0399 19.8931L23.2806 20.6368C23.3097 20.7242 23.3654 20.8003 23.4399 20.8545C23.5145 20.9086 23.6041 20.9381 23.6962 20.9387H24.4749L23.8449 21.3981C23.7707 21.452 23.7155 21.5281 23.6872 21.6153C23.6589 21.7026 23.659 21.7965 23.6874 21.8837Z" fill="#3A550E"/>
</svg>
