<svg width="28" height="28" viewBox="0 0 28 28" fill="none" xmlns="http://www.w3.org/2000/svg">
<path fill-rule="evenodd" clip-rule="evenodd" d="M21.7387 6.31517C22.4142 6.50419 23.0274 6.88618 23.4978 7.42352C24.1656 8.18629 24.4852 9.19273 24.38 10.2007L23.3575 22.2465C23.2311 24.1173 21.6957 25.5825 19.8197 25.62L19.7996 25.6202H8.21274L8.20161 25.6201L8.19318 25.62C6.31645 25.5835 4.78003 24.118 4.65355 22.2465L3.63099 10.2007C3.52587 9.19275 3.84543 8.1863 4.51327 7.42352C4.98419 6.88564 5.59809 6.5034 6.27436 6.31458C6.28007 5.85361 6.39715 5.39412 6.62493 4.9777C7.07694 4.15138 7.90684 3.60064 8.84386 3.50517C8.87771 3.50173 8.91172 3.5 8.94576 3.5H19.0674C19.1014 3.5 19.1355 3.50173 19.1692 3.50517C20.1063 3.60064 20.9362 4.15138 21.3882 4.9777C21.6161 5.3943 21.7331 5.85401 21.7387 6.31517ZM20.5158 8.19221C20.5274 8.19241 20.539 8.19241 20.5506 8.19221H20.8096C21.2613 8.20672 21.687 8.40795 21.9848 8.74817C22.2852 9.09119 22.4282 9.54423 22.3794 9.99752L22.3772 10.0202L21.353 22.0857L21.3514 22.106C21.2979 22.9364 20.6194 23.5882 19.7884 23.6092H8.22366C7.39232 23.5887 6.71323 22.9368 6.65956 22.1059L6.65805 22.0857L5.63382 10.0202L5.63164 9.99759C5.58282 9.54427 5.72591 9.0912 6.02625 8.74817C6.32413 8.40793 6.74974 8.20672 7.20139 8.19221H7.46254C7.47412 8.19241 7.48571 8.19241 7.49732 8.19221H20.5158ZM8.30199 6.18129H19.7111C19.6944 6.09887 19.6654 6.0184 19.624 5.94273C19.4964 5.70962 19.2676 5.5504 19.0064 5.51092H9.00673C8.74556 5.5504 8.51668 5.70962 8.38917 5.94273C8.34777 6.0184 8.3187 6.09887 8.30199 6.18129ZM10.655 11.5437C11.2103 11.5437 11.6605 11.9938 11.6605 12.5491V13.2194C11.6605 14.5151 12.7109 15.5655 14.0066 15.5655C15.3023 15.5655 16.3526 14.5151 16.3526 13.2194V12.5491C16.3526 11.9938 16.8028 11.5437 17.3581 11.5437C17.9134 11.5437 18.3635 11.9938 18.3635 12.5491V13.2194C18.3635 15.6257 16.4128 17.5764 14.0066 17.5764C11.6003 17.5764 9.64958 15.6257 9.64958 13.2194V12.5491C9.64958 11.9938 10.0997 11.5437 10.655 11.5437Z" fill="#3A550E"/>
</svg>
