<svg width="28" height="28" viewBox="0 0 28 28" fill="none" xmlns="http://www.w3.org/2000/svg">
<path d="M14 2.5459C7.65734 2.5459 2.51562 7.68767 2.51562 14.0303C3.12055 29.2641 24.8818 29.2598 25.4844 14.0302C25.4844 7.68767 20.3427 2.5459 14 2.5459ZM14.7181 6.05036L17.0885 4.47194C19.117 5.13374 20.8831 6.42216 22.1327 8.15169L21.368 10.8798L17.6238 12.0799L14.7181 9.94425V6.05036ZM10.9116 4.47194L13.2826 6.05065V9.94396L10.3764 12.0799L6.63198 10.8796L5.86745 8.15157C7.11695 6.42201 8.88311 5.13362 10.9116 4.47194ZM5.89677 19.9483C4.63045 18.23 3.94874 16.1509 3.95186 14.0164L6.19082 12.2455L9.93227 13.4449L11.0485 16.9202L8.73259 20.0643L5.89677 19.9483ZM17.12 23.577C15.1727 24.2408 12.8271 24.2407 10.8797 23.5769L9.8916 20.9117L12.2108 17.7631H15.7894L18.1081 20.9118L17.12 23.577ZM22.1031 19.9483L19.2673 20.0643L16.9517 16.9202L18.0681 13.4448L21.8093 12.2457L24.0481 14.0165C24.0513 16.151 23.3695 18.2302 22.1031 19.9483Z" fill="#3A550E"/>
</svg>
