<svg width="16" height="17" viewBox="0 0 16 17" fill="none" xmlns="http://www.w3.org/2000/svg">
<path fill-rule="evenodd" clip-rule="evenodd" d="M11.2972 1.6963C11.4649 1.91566 11.4231 2.22946 11.2037 2.3972C10.5106 2.92728 10.0813 3.60987 10.0104 4.33607C10.8757 4.65639 11.5 5.50623 11.5 6.49995C11.5 6.63542 11.497 6.77035 11.4909 6.90464C11.5061 6.98229 11.503 7.06467 11.4783 7.14563C11.4777 7.14771 11.4771 7.14979 11.4764 7.15185C11.2274 10.5848 9.02719 13.5675 5.87161 14.7196L5.87147 14.7196L3.82179 15.4695C3.58975 15.5544 3.33049 15.4571 3.21164 15.2404C3.09279 15.0238 3.15 14.7529 3.34628 14.6028L4.18993 13.9576C5.96864 12.5035 7.05 10.2488 7.05 7.84995V7.21814C7.03886 7.19509 7.02936 7.17089 7.02167 7.14563C6.98351 7.02024 6.99702 6.89144 7.05 6.78212V6.49995C7.05 5.33055 7.88119 4.33285 9.01766 4.21218C9.12813 3.16064 9.74687 2.25239 10.5963 1.60285C10.8156 1.4351 11.1294 1.47695 11.2972 1.6963ZM8.05 7.37147V7.84995C8.05 9.9894 7.28552 12.031 5.96322 13.6055C8.41768 12.5251 10.1489 10.1405 10.4524 7.37201C9.65768 7.19291 8.84479 7.19273 8.05 7.37147ZM10.4927 6.35863C9.68619 6.20047 8.86466 6.19726 8.05758 6.34898C8.12597 5.67551 8.6478 5.19995 9.25 5.19995C9.87136 5.19995 10.4233 5.69529 10.4927 6.35863Z" fill="white"/>
</svg>
