<svg width="16" height="17" viewBox="0 0 16 17" fill="none" xmlns="http://www.w3.org/2000/svg">
<path fill-rule="evenodd" clip-rule="evenodd" d="M6.76713 2.07665C7.2204 0.975751 8.7796 0.975757 9.23293 2.07665L10.7904 5.85911L14.2837 6.0646C15.5088 6.13667 15.9941 7.68578 15.0291 8.44405L12.1211 10.7289L13.2801 14.013C13.7099 15.2304 12.3313 16.2868 11.2675 15.5554L8 13.309L4.73254 15.5554C3.66869 16.2868 2.29017 15.2304 2.71985 14.013L3.87892 10.7289L0.970902 8.44405C0.00586557 7.68585 0.491203 6.13667 1.71636 6.0646L5.20962 5.85911L6.76713 2.07665ZM8 2.58431L6.12373 7.14098L1.79466 7.39565L5.45443 10.2712L3.97717 14.4567L8 11.691L12.0229 14.4567L10.5456 10.2712L14.2053 7.39565L9.87627 7.14098L8 2.58431Z" fill="white"/>
</svg>
