<svg width="190" height="190" viewBox="0 0 190 190" fill="none" xmlns="http://www.w3.org/2000/svg">
<circle cx="95" cy="95" r="95" fill="#EBEEE7"/>
<g clip-path="url(#clip0_128_3495)">
<path d="M130.549 133.967C130.549 141.268 130.549 148.417 130.549 155.569C130.549 157.481 130.039 158 128.158 158C120.579 158 112.997 158.003 105.417 158C103.64 158 103.118 157.487 103.075 155.73C102.984 151.972 101.917 148.515 99.9794 145.293C97.8496 141.749 95.7799 138.169 93.756 134.563C93.3949 133.921 92.9706 133.97 92.4489 133.97C79.0762 133.97 65.7034 133.97 52.3307 133.967C51.6886 133.967 51.035 133.978 50.4072 133.875C45.9497 133.147 43.0085 129.693 43.0057 125.149C42.9942 111.169 43.0028 97.1881 43.0028 83.2077C43.0028 76.8065 42.9971 70.4083 43.0057 64.0071C43.0114 58.6552 46.6749 55.0031 52.0441 55.0031C80.3604 55.0003 108.68 55.0003 136.999 55.0031C142.342 55.0031 145.997 58.6752 145.997 64.0444C146.003 84.3543 146.003 104.661 145.997 124.971C145.994 130.312 142.316 133.955 136.947 133.967C134.846 133.97 132.745 133.967 130.549 133.967ZM142.526 80.9631C142.54 75.422 142.557 69.8808 142.563 64.3368C142.569 60.4525 140.565 58.4345 136.712 58.4345C108.568 58.4345 80.4263 58.4345 52.282 58.4345C48.4407 58.4345 46.4341 60.4611 46.4341 64.3368C46.4341 79.8566 46.4341 95.3764 46.437 110.896C46.437 111.289 46.4599 111.682 46.4743 112.074C46.4628 116.363 46.4399 120.651 46.437 124.943C46.4341 128.417 48.564 130.53 52.0613 130.53C64.9323 130.532 77.8005 130.53 90.6716 130.53C90.9697 130.53 91.2678 130.53 91.5545 130.53C91.1646 129.343 90.8149 128.276 90.4279 127.095C90.1642 127.095 89.7772 127.095 89.3873 127.095C78.0556 127.095 66.7211 127.098 55.3894 127.093C52.0383 127.09 49.8826 124.943 49.8683 121.614C49.854 118.648 49.8454 115.681 49.831 112.716C49.8425 112.324 49.8654 111.931 49.8654 111.538C49.8683 96.8756 49.8654 82.2158 49.8683 67.5531C49.8683 63.9727 51.9523 61.8658 55.5012 61.8658C81.4984 61.8629 107.496 61.8629 133.493 61.8658C137.039 61.8658 139.123 63.9756 139.132 67.5531C139.143 73.1659 139.154 78.7816 139.163 84.3944C139.163 87.4875 139.163 90.5777 139.163 93.5475C139.708 93.2895 140.255 92.8223 140.797 92.828C141.379 92.8337 141.958 93.2809 142.523 93.5274C142.526 89.4339 142.526 85.1999 142.526 80.9631ZM135.666 69.382C135.677 68.9549 135.697 68.5249 135.697 68.0978C135.7 65.6784 135.325 65.3028 132.922 65.3028C107.226 65.3028 81.53 65.3028 55.8366 65.3028C53.7755 65.3028 53.3025 65.7672 53.3025 67.8025C53.3025 83.5631 53.3025 99.3237 53.3025 115.084C53.3025 115.583 53.3254 116.082 53.3369 116.584C53.3254 118.192 53.3054 119.8 53.3054 121.408C53.3054 123.096 53.8701 123.667 55.5442 123.667C67.3431 123.67 79.1421 123.676 90.941 123.644C91.4054 123.644 91.9644 123.403 92.317 123.091C94.1746 121.434 96.6771 121.076 98.8873 122.231C99.1166 122.351 99.3459 122.463 99.6154 122.598C99.6154 117.226 99.6154 111.971 99.6154 106.717C99.6269 106.149 99.6584 105.579 99.6469 105.011C99.6211 103.595 100.057 102.348 101.017 101.305C103.004 99.1488 105.813 99.0858 108.482 101.121C109.591 102.397 110.021 103.876 109.967 105.564C109.898 107.671 109.95 109.781 109.95 111.891C109.95 113.02 109.95 114.147 109.95 115.294C112.891 114.826 113.905 115.182 116.064 117.392C118.776 116.191 121.046 116.827 122.912 119.143C124.641 118.301 126.361 118.266 128.029 119.255C129.686 120.236 130.423 121.798 130.615 123.67C131.521 123.67 132.341 123.67 133.16 123.67C135.219 123.67 135.697 123.2 135.697 121.167C135.697 104.226 135.697 87.2868 135.697 70.3452C135.697 70.0213 135.677 69.7031 135.666 69.382ZM106.854 154.5C113.378 154.5 120.223 154.5 127.118 154.5C127.118 154.188 127.118 153.941 127.118 153.697C127.118 143.862 127.118 134.03 127.118 124.194C127.118 123.908 127.209 123.535 127.066 123.354C126.67 122.853 126.235 122.188 125.701 122.053C125.223 121.933 124.529 122.354 124.045 122.698C123.795 122.876 123.758 123.397 123.686 123.773C123.488 124.799 122.789 125.433 121.866 125.375C120.937 125.318 120.301 124.613 120.258 123.569C120.235 123.033 120.275 122.494 120.243 121.961C120.183 120.941 119.487 120.25 118.549 120.241C117.609 120.233 116.898 120.918 116.829 121.933C116.798 122.394 116.826 122.861 116.818 123.326C116.798 124.596 116.161 125.361 115.124 125.378C114.077 125.393 113.404 124.624 113.387 123.375C113.375 122.408 113.398 121.442 113.381 120.479C113.361 119.292 112.704 118.547 111.698 118.527C110.649 118.507 109.97 119.272 109.952 120.522C109.938 121.594 109.981 122.669 109.932 123.739C109.886 124.69 109.164 125.358 108.275 125.378C107.341 125.401 106.613 124.713 106.527 123.713C106.504 123.429 106.518 123.142 106.518 122.856C106.518 117.1 106.518 111.341 106.518 105.584C106.518 105.263 106.55 104.934 106.498 104.621C106.349 103.692 105.799 103.148 104.853 103.085C103.964 103.025 103.216 103.698 103.104 104.624C103.067 104.942 103.087 105.266 103.087 105.59C103.087 113.207 103.078 120.823 103.095 128.44C103.098 129.452 102.774 130.234 101.751 130.481C100.713 130.73 100.08 130.137 99.6527 129.237C99.1797 128.239 98.6895 127.244 98.1649 126.273C97.5056 125.049 96.3303 124.665 95.1922 125.252C94.1115 125.811 93.7274 126.986 94.381 128.185C96.9896 132.975 99.6383 137.745 102.276 142.518C102.966 143.765 103.864 144.937 104.334 146.259C105.28 148.927 106.005 151.679 106.854 154.5ZM130.592 130.532C132.716 130.532 134.78 130.535 136.847 130.532C140.485 130.53 142.566 128.454 142.569 124.825C142.571 115.285 142.569 105.745 142.569 96.2048C142.569 95.8981 142.569 95.5943 142.569 95.3965C141.987 95.6745 141.439 96.1418 140.897 96.136C140.315 96.1303 139.736 95.6831 139.134 95.4165C139.134 95.6401 139.134 95.987 139.134 96.3338C139.134 104.802 139.143 113.27 139.129 121.738C139.123 124.877 136.933 127.064 133.814 127.095C132.753 127.107 131.69 127.098 130.589 127.098C130.592 128.256 130.592 129.317 130.592 130.532Z" fill="#010101"/>
<path d="M53.337 116.581C53.3255 116.082 53.3026 115.583 53.3026 115.081C53.2997 99.3207 53.2997 83.5601 53.3026 67.7995C53.3026 65.7642 53.7756 65.2998 55.8366 65.2998C81.5329 65.2998 107.229 65.2998 132.923 65.2998C135.325 65.2998 135.7 65.6753 135.697 68.0947C135.697 68.5219 135.677 68.9519 135.666 69.379C134.416 71.6149 133.189 73.8652 131.899 76.0782C131.466 76.8236 130.876 77.4771 130.357 78.1737C129.881 77.8269 129.408 77.4771 128.832 77.0586C128.832 75.0692 128.84 72.9278 128.829 70.7836C128.82 69.3761 128.201 68.7483 126.811 68.7369C124.916 68.7225 123.021 68.7741 121.129 68.7197C119.788 68.6795 118.696 68.906 118.481 70.4196C117.291 70.4196 116.225 70.4196 115.17 70.4196C114.674 69.0121 114.31 68.7397 112.911 68.7369C110.944 68.7311 108.978 68.7311 107.014 68.7369C105.392 68.7426 104.81 69.3131 104.804 70.9155C104.798 73.0224 104.801 75.1294 104.801 77.2192C103.265 77.7925 102.975 78.2569 103.133 79.7962C103.686 85.1969 104.234 90.5976 104.781 96.0012C104.919 97.3628 105.486 97.9046 106.842 97.9189C108.737 97.939 110.629 97.9418 112.524 97.9533C111.176 99.0111 109.829 100.069 108.482 101.127C105.816 99.0914 103.007 99.1544 101.017 101.31C100.057 102.354 99.6212 103.598 99.647 105.017C99.6584 105.584 99.6269 106.155 99.6154 106.722C97.3738 107.812 95.1693 108.987 92.8789 109.962C90.7949 110.85 88.6163 111.518 86.4778 112.283C86.8361 108.95 87.1514 105.61 87.57 102.285C87.7936 100.519 87.1973 99.2003 85.7439 98.2658C85.0388 97.8128 84.2533 97.4803 83.4736 97.079C83.6714 96.3939 83.8606 95.726 84.067 95.0179C82.9576 94.6452 81.9543 94.307 80.8793 93.9458C80.5726 94.8172 80.2945 95.6084 80.0795 96.2247C77.9926 96.2247 76.0347 96.1617 74.0797 96.2391C71.365 96.3451 68.659 96.5945 66.1794 97.853C64.0781 98.9194 63.4532 100.252 63.7198 102.546C64.2616 107.221 64.7489 111.905 65.2563 116.586C61.2832 116.581 57.3101 116.581 53.337 116.581ZM60.1452 80.1345C59.0788 80.5616 58.0095 80.9859 56.754 81.4875C58.2819 83.3938 58.5571 85.4262 58.4911 87.6249C58.4051 90.4858 60.7013 92.7418 63.5593 92.7533C71.6001 92.7819 79.6409 92.7791 87.6789 92.7533C90.2416 92.7447 92.3486 90.89 92.7213 88.3674C92.8359 87.5963 92.8159 86.7965 92.7729 86.0139C92.7155 84.9934 92.8388 84.0589 93.458 83.1903C93.8134 82.6915 94.0256 82.0866 94.3638 81.4101C93.1799 80.9486 92.1365 80.5415 91.093 80.1316C91.0873 79.7762 91.0787 79.4178 91.073 79.0595C92.426 78.6926 92.7757 78.2569 92.7843 76.8866C92.7901 75.8489 92.8073 74.8112 92.7786 73.7764C92.7012 70.97 90.5025 68.7512 87.6875 68.7397C79.6409 68.7111 71.5944 68.7111 63.5507 68.7397C60.6955 68.7512 58.5083 71.0101 58.4596 73.8853C58.4424 74.8857 58.451 75.889 58.4567 76.8895C58.4653 78.2597 58.8122 78.6955 60.1681 79.0595C60.1566 79.4207 60.1509 79.779 60.1452 80.1345Z" fill="#94D6FC"/>
<path d="M106.854 154.5C106.005 151.679 105.28 148.927 104.331 146.256C103.861 144.931 102.964 143.762 102.273 142.515C99.6327 137.742 96.9839 132.972 94.3782 128.182C93.7246 126.984 94.1087 125.808 95.1894 125.249C96.3275 124.662 97.5028 125.046 98.1621 126.27C98.6867 127.242 99.1769 128.236 99.6499 129.234C100.077 130.134 100.711 130.727 101.748 130.478C102.769 130.231 103.096 129.452 103.093 128.437C103.078 120.82 103.084 113.204 103.084 105.587C103.084 105.266 103.061 104.939 103.101 104.621C103.213 103.695 103.964 103.022 104.85 103.082C105.796 103.145 106.349 103.69 106.495 104.618C106.544 104.934 106.515 105.26 106.515 105.582C106.515 111.338 106.515 117.097 106.515 122.853C106.515 123.14 106.501 123.426 106.524 123.71C106.607 124.71 107.338 125.398 108.273 125.375C109.164 125.353 109.884 124.687 109.93 123.736C109.981 122.667 109.935 121.592 109.95 120.519C109.967 119.27 110.646 118.504 111.695 118.524C112.702 118.544 113.358 119.29 113.378 120.476C113.395 121.442 113.372 122.409 113.384 123.372C113.401 124.624 114.075 125.393 115.121 125.375C116.159 125.361 116.795 124.593 116.815 123.323C116.824 122.859 116.795 122.391 116.827 121.93C116.895 120.918 117.606 120.23 118.547 120.238C119.484 120.247 120.18 120.938 120.241 121.958C120.272 122.492 120.232 123.031 120.255 123.567C120.298 124.613 120.934 125.315 121.863 125.373C122.786 125.43 123.486 124.799 123.683 123.77C123.755 123.392 123.792 122.873 124.042 122.695C124.526 122.351 125.217 121.93 125.699 122.05C126.235 122.185 126.67 122.85 127.063 123.352C127.207 123.532 127.115 123.905 127.115 124.192C127.118 134.027 127.115 143.859 127.115 153.695C127.115 153.941 127.115 154.188 127.115 154.497C120.223 154.5 113.378 154.5 106.854 154.5Z" fill="#F7CCAE"/>
<path d="M108.482 101.121C109.829 100.063 111.176 99.0053 112.524 97.9475C117.268 97.936 122.015 97.9303 126.759 97.9131C128.044 97.9074 128.714 97.3828 128.829 96.2447C129.402 90.6749 129.967 85.1051 130.509 79.5324C130.552 79.0881 130.411 78.6266 130.354 78.1736C130.873 77.4771 131.463 76.8235 131.896 76.0782C133.183 73.8651 134.41 71.6149 135.663 69.3789C135.674 69.7 135.697 70.021 135.697 70.3421C135.7 87.2837 135.7 104.222 135.697 121.164C135.697 123.194 135.219 123.664 133.16 123.667C132.341 123.667 131.521 123.667 130.615 123.667C130.423 121.795 129.683 120.232 128.029 119.252C126.364 118.266 124.644 118.298 122.912 119.14C121.046 116.824 118.776 116.188 116.064 117.389C113.903 115.182 112.888 114.823 109.95 115.29C109.95 114.147 109.95 113.017 109.95 111.888C109.95 109.778 109.898 107.668 109.967 105.561C110.021 103.876 109.591 102.396 108.482 101.121Z" fill="#79C6EC"/>
<path d="M46.4743 112.074C46.4629 111.681 46.4371 111.289 46.4371 110.896C46.4342 95.376 46.4342 79.8562 46.4342 64.3364C46.4342 60.4579 48.4408 58.4341 52.2821 58.4341C80.4264 58.4341 108.568 58.4341 136.712 58.4341C140.565 58.4341 142.569 60.4522 142.563 64.3364C142.554 69.8776 142.537 75.4187 142.526 80.9627C142.314 81.129 142.076 81.2695 141.895 81.4615C140.978 82.4333 140.075 83.4165 139.166 84.3941C139.155 78.7812 139.143 73.1656 139.134 67.5528C139.129 63.9752 137.042 61.8654 133.496 61.8654C107.499 61.8625 81.5014 61.8625 55.5041 61.8654C51.9553 61.8654 49.8713 63.9724 49.8713 67.5528C49.8684 82.2154 49.8713 96.8753 49.8684 111.538C49.8684 111.931 49.8455 112.323 49.834 112.716C48.7132 112.504 47.5952 112.289 46.4743 112.074Z" fill="#E5E5E5"/>
<path d="M86.4778 112.278C88.6134 111.512 90.792 110.844 92.8789 109.956C95.1693 108.981 97.3738 107.806 99.6154 106.716C99.6154 111.971 99.6154 117.225 99.6154 122.597C99.346 122.463 99.1138 122.351 98.8873 122.23C96.6772 121.075 94.1746 121.433 92.3171 123.09C91.9673 123.403 91.4055 123.641 90.9411 123.644C79.1421 123.672 67.3432 123.669 55.5442 123.667C53.8702 123.667 53.3026 123.096 53.3054 121.408C53.3054 119.799 53.3255 118.191 53.337 116.583C57.3101 116.583 61.2832 116.583 65.2534 116.583C65.4484 118.587 66.8587 119.61 68.4554 120.413C71.173 121.777 74.0998 122.136 77.0925 121.895C79.7126 121.686 82.2323 121.089 84.3622 119.404C85.2939 118.667 85.8729 117.756 85.9647 116.514C86.0679 115.095 86.3001 113.688 86.4778 112.278Z" fill="#79C6EB"/>
<path d="M46.4743 112.074C47.5951 112.289 48.7131 112.504 49.8339 112.719C49.8454 115.686 49.8569 118.653 49.8712 121.617C49.8855 124.945 52.0412 127.095 55.3923 127.095C66.724 127.101 78.0585 127.098 89.3902 127.098C89.7772 127.098 90.1671 127.098 90.4308 127.098C90.8178 128.276 91.1675 129.346 91.5574 130.532C91.2736 130.532 90.9755 130.532 90.6745 130.532C77.8034 130.532 64.9352 130.535 52.0642 130.532C48.5669 130.532 46.437 128.42 46.4399 124.945C46.4399 120.654 46.4628 116.366 46.4743 112.074Z" fill="#D5D5D5"/>
<path d="M130.592 130.532C130.592 129.317 130.592 128.256 130.592 127.098C131.693 127.098 132.753 127.107 133.817 127.095C136.936 127.064 139.126 124.877 139.132 121.738C139.143 113.27 139.137 104.802 139.137 96.3339C139.137 95.987 139.137 95.6401 139.137 95.4166C139.739 95.6803 140.318 96.1303 140.9 96.1361C141.442 96.1418 141.99 95.6745 142.572 95.3965C142.572 95.5943 142.572 95.8981 142.572 96.2049C142.572 105.745 142.574 115.285 142.572 124.825C142.572 128.451 140.488 130.527 136.85 130.532C134.78 130.535 132.716 130.532 130.592 130.532Z" fill="#D5D5D5"/>
<path d="M139.166 84.3942C140.075 83.4138 140.978 82.4306 141.895 81.4617C142.078 81.2696 142.314 81.1263 142.526 80.9629C142.526 85.1997 142.526 89.4366 142.526 93.5301C141.961 93.2836 141.382 92.8364 140.8 92.8306C140.258 92.8249 139.711 93.2922 139.166 93.5502C139.166 90.5775 139.166 87.4873 139.166 84.3942Z" fill="#D5D5D5"/>
<path d="M60.1624 79.0654C58.8093 78.7013 58.4596 78.2656 58.451 76.8954C58.4453 75.8949 58.4367 74.8916 58.4539 73.8912C58.5055 71.016 60.6898 68.7571 63.5449 68.7456C71.5915 68.717 79.6381 68.717 87.6818 68.7456C90.4968 68.7542 92.6955 70.9758 92.7729 73.7822C92.8015 74.8171 92.7843 75.8548 92.7786 76.8925C92.77 78.2628 92.4203 78.6985 91.0672 79.0654C89.7601 79.0654 88.4529 79.0654 86.9938 79.0654C87.4954 80.063 87.8939 80.9746 88.3956 81.8231C88.9287 82.7232 89.783 82.6945 90.3276 81.7772C90.6344 81.2612 90.8379 80.6879 91.0844 80.1375C92.1279 80.5446 93.1742 80.9545 94.3552 81.416C94.017 82.0925 93.8077 82.6974 93.4494 83.1962C92.8302 84.0619 92.7069 84.9964 92.7643 86.0198C92.8073 86.8024 92.8245 87.6022 92.7127 88.3733C92.34 90.8959 90.2359 92.7506 87.6703 92.7592C79.6295 92.785 71.5886 92.7878 63.5507 92.7592C60.6898 92.7477 58.3937 90.4917 58.4825 87.6308C58.5485 85.4321 58.2733 83.3997 56.7454 81.4934C58.0009 80.9918 59.0702 80.5646 60.1366 80.1404C60.3859 80.6879 60.5895 81.2641 60.8962 81.7801C61.438 82.6974 62.2951 82.7261 62.8283 81.8259C63.33 80.9774 63.7284 80.0658 64.2301 79.0683C62.7767 79.0654 61.4695 79.0654 60.1624 79.0654ZM61.8881 75.5337C71.1099 75.5337 80.2028 75.5337 89.3501 75.5337C89.3501 74.9719 89.3702 74.4731 89.3473 73.98C89.2957 72.842 88.665 72.1798 87.5212 72.1769C79.5893 72.1626 71.6574 72.1626 63.7255 72.1769C62.5789 72.1798 61.9483 72.8391 61.8938 73.9714C61.868 74.4674 61.8881 74.9662 61.8881 75.5337ZM61.9941 85.9539C61.6387 88.2385 61.9139 89.4167 64.8378 89.368C71.1243 89.2619 77.4136 89.3364 83.7029 89.3364C84.9528 89.3364 86.2055 89.3536 87.4553 89.3307C88.665 89.3078 89.2985 88.6743 89.3473 87.4818C89.3673 86.9916 89.3501 86.4985 89.3501 85.9567C80.1684 85.9539 71.0784 85.9539 61.9941 85.9539ZM71.0927 82.4136C70.5825 81.4045 70.1697 80.4643 69.648 79.5929C69.1807 78.8131 68.3092 78.8246 67.842 79.6101C67.3231 80.4844 66.9075 81.4189 66.4058 82.4136C68.0226 82.4136 69.4874 82.4136 71.0927 82.4136ZM84.8438 82.4394C84.3164 81.396 83.9122 80.4872 83.4134 79.6359C82.9461 78.8418 82.069 78.7988 81.6074 79.5642C81.0685 80.4557 80.65 81.4218 80.1369 82.4394C81.768 82.4394 83.2185 82.4394 84.8438 82.4394ZM77.9496 79.117C76.3185 79.117 74.8566 79.117 73.2971 79.117C73.7759 80.0802 74.1686 80.9516 74.6387 81.7801C75.1547 82.6888 76.0319 82.7232 76.5622 81.8345C77.0639 80.9918 77.4595 80.083 77.9496 79.117Z" fill="#010101"/>
<path d="M130.357 78.1739C130.411 78.6269 130.555 79.0884 130.512 79.5327C129.97 85.1054 129.405 90.6752 128.832 96.245C128.714 97.3831 128.044 97.9105 126.762 97.9134C122.018 97.9306 117.271 97.9363 112.527 97.9478C110.632 97.9363 108.74 97.9334 106.845 97.9134C105.492 97.899 104.924 97.3573 104.784 95.9956C104.236 90.5949 103.686 85.1914 103.136 79.7907C102.978 78.2513 103.265 77.7869 104.804 77.2136C104.804 75.1239 104.798 73.0169 104.807 70.9099C104.813 69.3075 105.395 68.7371 107.017 68.7313C108.984 68.7256 110.95 68.7256 112.914 68.7313C114.313 68.7342 114.677 69.0065 115.173 70.414C116.227 70.414 117.294 70.414 118.483 70.414C118.698 68.9005 119.791 68.6769 121.132 68.7141C123.024 68.7715 124.922 68.717 126.814 68.7313C128.204 68.7428 128.823 69.3677 128.832 70.7781C128.843 72.9223 128.835 75.0637 128.835 77.0531C129.408 77.4802 129.881 77.8271 130.357 78.1739ZM126.487 84.4002C126.642 83.2163 126.797 82.0324 126.957 80.8169C120.117 80.8169 113.45 80.8169 106.705 80.8169C107.163 85.392 107.616 89.8926 108.072 94.4419C111.182 94.4419 114.212 94.4419 117.245 94.4419C120.017 94.4419 122.789 94.4419 125.613 94.4419C125.908 91.0135 126.197 87.7083 126.487 84.4002ZM111.601 77.2853C111.601 75.5252 111.601 73.874 111.601 72.2343C110.451 72.2343 109.368 72.2343 108.301 72.2343C108.301 73.9572 108.301 75.6083 108.301 77.2853C109.425 77.2853 110.483 77.2853 111.601 77.2853ZM125.349 77.2738C125.349 75.5624 125.349 73.9084 125.349 72.22C124.217 72.22 123.133 72.22 122.018 72.22C122.018 73.9256 122.018 75.5768 122.018 77.2738C123.124 77.2738 124.182 77.2738 125.349 77.2738ZM118.504 73.9543C117.314 73.9543 116.23 73.9543 115.17 73.9543C115.17 75.1067 115.17 76.1874 115.17 77.2509C116.322 77.2509 117.403 77.2509 118.504 77.2509C118.504 76.1243 118.504 75.0665 118.504 73.9543Z" fill="#010101"/>
<path d="M86.4778 112.278C86.3001 113.688 86.065 115.095 85.9618 116.512C85.8701 117.753 85.2939 118.664 84.3594 119.401C82.2295 121.084 79.7098 121.683 77.0897 121.892C74.0998 122.133 71.173 121.775 68.4526 120.41C66.8559 119.608 65.4455 118.584 65.2506 116.58C64.7432 111.899 64.2559 107.218 63.7141 102.54C63.4475 100.246 64.0724 98.9135 66.1736 97.8471C68.6533 96.5887 71.3622 96.3393 74.074 96.2332C76.029 96.1558 77.9869 96.2189 80.0738 96.2189C80.2888 95.6026 80.5697 94.8114 80.8736 93.9399C81.9486 94.3011 82.9519 94.6394 84.0613 95.0121C83.8577 95.7201 83.6657 96.3909 83.4679 97.0731C84.2476 97.4745 85.0302 97.807 85.7382 98.2599C87.1945 99.1916 87.7878 100.51 87.5643 102.279C87.1543 105.604 86.8361 108.944 86.4778 112.278ZM68.788 116.363C69.2524 116.718 69.668 117.18 70.1869 117.415C73.0478 118.71 76.029 118.813 79.0504 118.114C82.2266 117.377 82.585 116.933 82.7713 113.72C82.7742 113.685 82.7656 113.648 82.7627 113.613C83.0895 110.933 83.4191 108.256 83.7574 105.498C78.2936 106.857 72.9446 106.863 67.4751 105.495C67.9165 109.159 68.3523 112.759 68.788 116.363ZM67.2687 101.109C67.2544 101.233 67.2372 101.356 67.2228 101.479C67.6499 101.703 68.0541 101.995 68.5042 102.136C71.3679 103.027 74.3177 103.145 77.2846 103.033C77.5111 103.024 77.8522 102.821 77.9296 102.626C78.2707 101.749 78.5344 100.84 78.8813 99.7764C74.805 99.527 70.9322 99.4381 67.2687 101.109ZM81.702 102.273C81.768 102.345 81.8339 102.414 81.8998 102.485C82.6165 102.15 83.336 101.815 84.0527 101.476C84.0383 101.37 84.0211 101.267 84.0068 101.161C83.4879 100.917 82.9662 100.676 82.3585 100.393C82.1091 101.104 81.9056 101.688 81.702 102.273Z" fill="#020203"/>
<path d="M60.1623 79.0654C61.4695 79.0654 62.7767 79.0654 64.2358 79.0654C63.7341 80.063 63.3385 80.9746 62.834 81.8231C62.3008 82.7232 61.4437 82.6917 60.9019 81.7772C60.5952 81.2613 60.3917 80.6879 60.1423 80.1375C60.1509 79.7792 60.1566 79.4209 60.1623 79.0654Z" fill="#5CAB34"/>
<path d="M91.093 80.1346C90.8436 80.6821 90.6401 81.2583 90.3362 81.7743C89.7916 82.6916 88.9345 82.7203 88.4042 81.8202C87.9025 80.9717 87.504 80.0601 87.0024 79.0625C88.4643 79.0625 89.7687 79.0625 91.0758 79.0625C91.0787 79.4208 91.0844 79.7792 91.093 80.1346Z" fill="#5CAB34"/>
<path d="M61.8881 75.5336C61.8881 74.966 61.868 74.4672 61.8909 73.9742C61.9425 72.839 62.5732 72.1797 63.7227 72.1797C71.6546 72.1654 79.5865 72.1654 87.5184 72.1797C88.6622 72.1826 89.2928 72.8447 89.3444 73.9828C89.3673 74.4787 89.3473 74.9746 89.3473 75.5365C80.1999 75.5336 71.1099 75.5336 61.8881 75.5336Z" fill="#F27900"/>
<path d="M61.9941 85.9536C71.0784 85.9536 80.1684 85.9536 89.3501 85.9536C89.3501 86.4954 89.3673 86.9885 89.3473 87.4786C89.2985 88.6712 88.665 89.3047 87.4553 89.3276C86.2055 89.3534 84.9556 89.3333 83.7029 89.3333C77.4136 89.3333 71.1243 89.2617 64.8378 89.3649C61.9139 89.4136 61.6387 88.2383 61.9941 85.9536Z" fill="#F27900"/>
<path d="M71.0927 82.4133C69.4874 82.4133 68.0226 82.4133 66.4058 82.4133C66.9103 81.4186 67.326 80.4841 67.842 79.6097C68.3064 78.8243 69.1807 78.8128 69.648 79.5925C70.1725 80.464 70.5825 81.4042 71.0927 82.4133Z" fill="#5CAA34"/>
<path d="M84.8438 82.4391C83.2213 82.4391 81.7679 82.4391 80.1368 82.4391C80.65 81.4215 81.0685 80.4583 81.6074 79.5639C82.0689 78.7985 82.9461 78.8415 83.4134 79.6356C83.9122 80.4898 84.3164 81.3957 84.8438 82.4391Z" fill="#5CAA34"/>
<path d="M77.9496 79.1167C77.4623 80.0827 77.0667 80.9915 76.5622 81.8342C76.029 82.7229 75.1547 82.6885 74.6387 81.7798C74.1686 80.9513 73.7787 80.0799 73.2971 79.1167C74.8566 79.1167 76.3157 79.1167 77.9496 79.1167Z" fill="#5CAB34"/>
<path d="M117.242 94.4419C114.212 94.4419 111.179 94.4419 108.069 94.4419C107.613 89.8926 107.16 85.392 106.702 80.8169C113.447 80.8169 120.117 80.8169 126.954 80.8169C126.797 82.0323 126.639 83.2162 126.484 84.4002C125.902 84.9849 125.317 85.5697 124.736 86.1545C123.821 87.0718 122.91 87.9863 121.995 88.9036C121.986 88.5825 121.964 88.2615 121.966 87.9404C121.995 85.6901 121.049 83.9788 119.028 82.9898C117.125 82.0581 115.25 82.3018 113.599 83.6233C111.756 85.0939 111.44 87.0976 111.75 89.282C112.888 89.282 113.948 89.282 115.072 89.282C115.198 87.906 114.654 85.9911 116.786 85.9653C119.011 85.9367 118.386 87.9461 118.61 89.3651C119.619 89.3651 120.576 89.3651 121.536 89.3651C121.198 89.8725 120.911 90.4258 120.513 90.8815C119.447 92.0884 118.334 93.258 117.242 94.4419Z" fill="#F80200"/>
<path d="M117.242 94.4416C118.334 93.2576 119.447 92.0881 120.513 90.8784C120.911 90.4254 121.198 89.8722 121.536 89.3619C121.691 89.2071 121.843 89.0552 121.998 88.9004C122.912 87.9831 123.824 87.0686 124.738 86.1513C125.32 85.5665 125.905 84.9818 126.487 84.397C126.197 87.705 125.911 91.0102 125.61 94.4387C122.783 94.4416 120.014 94.4416 117.242 94.4416Z" fill="#E20000"/>
<path d="M111.601 77.2848C110.483 77.2848 109.425 77.2848 108.301 77.2848C108.301 75.6079 108.301 73.9567 108.301 72.2339C109.368 72.2339 110.451 72.2339 111.601 72.2339C111.601 73.8736 111.601 75.5276 111.601 77.2848Z" fill="#FEB500"/>
<path d="M125.349 77.2736C124.182 77.2736 123.124 77.2736 122.018 77.2736C122.018 75.5765 122.018 73.9254 122.018 72.2197C123.133 72.2197 124.217 72.2197 125.349 72.2197C125.349 73.9082 125.349 75.5593 125.349 77.2736Z" fill="#FEB500"/>
<path d="M118.503 73.9541C118.503 75.0663 118.503 76.1241 118.503 77.2507C117.406 77.2507 116.322 77.2507 115.17 77.2507C115.17 76.1901 115.17 75.1065 115.17 73.9541C116.23 73.9541 117.314 73.9541 118.503 73.9541Z" fill="#FEC833"/>
<path d="M68.7879 116.362C68.3522 112.759 67.9165 109.159 67.4722 105.495C72.9417 106.862 78.2907 106.857 83.7545 105.498C83.4162 108.256 83.0894 110.936 82.7598 113.613C80.6528 114.106 78.5602 114.665 76.436 115.078C73.902 115.568 71.3392 115.938 68.7879 116.362Z" fill="#B1B1B1"/>
<path d="M68.788 116.363C71.3392 115.939 73.8991 115.572 76.4389 115.076C78.5602 114.663 80.6557 114.104 82.7627 113.611C82.7655 113.645 82.7741 113.683 82.7713 113.717C82.5849 116.93 82.2266 117.375 79.0504 118.111C76.029 118.814 73.0477 118.708 70.1869 117.412C69.668 117.18 69.2524 116.718 68.788 116.363Z" fill="#979797"/>
<path d="M67.2686 101.11C70.9322 99.4384 74.8021 99.5273 78.8813 99.7738C78.5344 100.837 78.2707 101.746 77.9295 102.623C77.8522 102.818 77.511 103.022 77.2846 103.03C74.3176 103.142 71.3679 103.027 68.5042 102.133C68.0512 101.993 67.647 101.7 67.2228 101.477C67.2371 101.353 67.2543 101.233 67.2686 101.11Z" fill="#835431"/>
<path d="M81.702 102.273C81.9056 101.688 82.112 101.103 82.3585 100.393C82.9691 100.676 83.4879 100.92 84.0068 101.161C84.0211 101.267 84.0383 101.37 84.0526 101.476C83.336 101.812 82.6165 102.147 81.8998 102.485C81.8339 102.416 81.768 102.345 81.702 102.273Z" fill="#7D4F2E"/>
<path d="M121.995 88.9005C121.84 89.0553 121.688 89.2073 121.534 89.3621C120.576 89.3621 119.616 89.3621 118.607 89.3621C118.383 87.9431 119.008 85.9336 116.784 85.9623C114.651 85.9881 115.195 87.903 115.069 89.2789C113.946 89.2789 112.885 89.2789 111.747 89.2789C111.434 87.0917 111.753 85.0908 113.596 83.6203C115.25 82.3016 117.122 82.058 119.025 82.9867C121.046 83.9757 121.992 85.6871 121.963 87.9374C121.963 88.2584 121.986 88.5795 121.995 88.9005Z" fill="#020000"/>
</g>
<defs>
<clipPath id="clip0_128_3495">
<rect width="103" height="103" fill="white" transform="translate(43 55)"/>
</clipPath>
</defs>
</svg>
