<svg width="191" height="190" viewBox="0 0 191 190" fill="none" xmlns="http://www.w3.org/2000/svg">
<circle cx="95.1666" cy="95" r="95" fill="#EBEEE7"/>
<g clip-path="url(#clip0_128_3496)">
<path d="M62.019 95.4676C62.3145 93.9896 62.5034 93.8227 63.9784 93.5325C77.1324 90.9346 90.284 88.3318 103.438 85.7315C106.403 85.1461 109.367 84.5559 112.336 83.9899C114.284 83.6174 115.938 84.7083 116.355 86.6628C116.556 87.6013 116.645 88.564 116.8 89.6163C119.561 89.0672 122.325 88.5181 125.088 87.969C126.692 87.6521 127.06 87.7924 127.639 88.9365C127.532 90.204 127.225 90.5282 125.9 90.7991C123.996 91.1885 122.095 91.5804 120.191 91.9723C119.559 92.0835 118.927 92.1779 118.299 92.3061C116.684 92.6375 116.706 92.6471 116.386 94.1904C116.144 95.3611 115.834 96.5174 115.548 97.7123C115.735 97.7123 115.829 97.7268 115.919 97.7099C120.455 96.8197 124.992 95.9296 129.528 95.0322C132.708 94.4033 135.883 93.7453 139.071 93.1503C140.318 92.9181 141.454 91.7546 141.209 90.4266C140.827 88.7575 139.805 88.0585 138.126 88.3705C136.363 88.6971 134.607 89.0672 132.849 89.4203C131.512 89.6888 131.141 89.5388 130.439 88.4455C130.565 87.1853 130.889 86.8273 132.11 86.5878C133.909 86.2346 135.709 85.8839 137.506 85.5259C140.575 84.9139 143.365 86.6144 144.021 89.5026C144.692 92.4585 143.019 95.2136 139.916 95.8861C134.856 96.9842 129.765 97.9324 124.686 98.9387C121.31 99.6087 117.929 100.247 114.562 100.956C114.124 101.048 113.695 101.416 113.363 101.754C111.772 103.38 110.21 105.034 108.653 106.691C108.459 106.897 108.207 107.19 108.219 107.429C108.347 109.778 108.527 112.127 108.691 114.475C109.394 113.721 110.244 112.862 111.031 111.948C111.726 111.142 112.472 110.562 113.61 110.883C114.693 111.19 115.078 112.001 115.238 113.034C115.681 115.886 114.758 118.348 113.15 120.629C112.986 120.861 112.806 121.084 112.545 121.43C112.925 121.454 113.191 121.485 113.458 121.485C117.808 121.488 122.16 121.483 126.51 121.488C129.436 121.49 130.906 122.949 130.918 125.861C130.928 128.244 130.933 130.624 130.918 133.007C130.901 135.837 129.375 137.341 126.544 137.351C125.292 137.356 124.042 137.351 122.686 137.351C122.686 138.229 122.688 139.054 122.686 139.879C122.678 141.523 122.209 141.988 120.542 141.988C104.235 141.988 87.9274 141.988 71.6199 141.988C70.622 141.988 69.6217 141.995 68.6239 141.986C67.1707 141.973 66.6717 141.465 66.6596 139.987C66.6523 139.153 66.6572 138.316 66.6572 137.344C65.4292 137.344 64.2206 137.344 63.0096 137.344C59.8634 137.341 58.4248 135.895 58.4199 132.728C58.4175 130.411 58.4078 128.094 58.4223 125.776C58.4417 122.975 59.9264 121.485 62.7141 121.478C67.1949 121.466 71.6732 121.476 76.1539 121.476C76.4664 121.476 76.7764 121.476 77.0065 121.476C76.5415 119.369 76.0861 117.322 75.6138 115.179C73.6423 115.566 71.5061 115.975 69.3723 116.41C59.5704 118.413 50.3522 113.663 46.4091 104.538C45.9199 103.409 45.5759 102.219 45.1666 101.055C45.1666 100.412 45.1666 99.7684 45.1666 99.125C45.9271 97.4003 47.3464 96.723 49.1315 96.4303C51.7182 96.007 54.2831 95.4361 56.8553 94.9257C58.2286 94.6524 58.6209 94.8024 59.27 95.8619C59.0521 96.3819 58.9552 97.0229 58.5822 97.3833C58.2431 97.7099 57.6085 97.7317 57.1023 97.8865C54.4236 98.4114 51.7521 98.9629 49.0661 99.4443C48.2111 99.5991 48.0391 99.9498 48.2402 100.76C49.1969 104.645 51.1829 107.879 54.3606 110.315C57.9743 113.084 62.0554 114.439 66.633 113.827C69.1107 113.496 71.5448 112.84 74.025 112.538C75.592 112.347 76.4252 111.79 76.648 110.158C76.8176 108.909 77.3068 108.668 78.5929 108.636C79.6586 109.25 79.6852 110.141 79.3704 111.205C78.7019 113.479 78.4912 115.784 79.1766 118.104C79.4673 118.914 79.7579 119.724 80.0485 120.535C80.3028 121.243 80.7945 121.42 81.5429 121.415C86.5638 121.379 91.587 121.401 96.6079 121.393C98.4099 121.391 100.209 121.362 102.011 121.345C102.464 121.347 102.915 121.347 103.368 121.35C104.453 121.367 105.543 121.304 106.618 121.418C107.979 121.56 108.941 120.98 109.764 120.007C111.159 118.679 112.223 117.182 112.278 115.162C112.32 115.143 112.358 115.121 112.399 115.102C112.385 115.078 112.37 115.053 112.358 115.029C112.329 115.07 112.303 115.111 112.273 115.155C111.377 115.929 110.481 116.706 109.585 117.48C108.931 117.9 108.277 118.321 107.623 118.742C107.488 118.827 107.354 118.914 107.219 118.999L107.238 118.984C107.107 119.057 106.974 119.129 106.843 119.202L106.858 119.192C106.773 119.241 106.688 119.289 106.604 119.335L106.589 119.328C105.879 119.533 105.058 119.69 104.69 118.936C104.436 118.413 104.414 117.608 104.625 117.059C106.204 112.939 106.015 108.876 104.366 104.846C104.012 103.985 103.474 103.198 102.966 102.274C99.0759 109.483 98.1362 110.733 94.0769 114.289C93.5101 114.787 92.9288 115.104 92.1635 114.966C91.1995 114.429 91.0978 113.609 91.4054 112.656C92.1998 111.043 92.1853 109.384 91.7687 107.49C91.3715 108.048 91.1147 108.452 90.8193 108.82C90.5189 109.195 90.1823 109.541 89.8504 109.889C88.6976 111.099 87.7942 111.016 86.944 109.608C86.0333 108.099 85.1396 106.578 84.2338 105.063C83.8826 104.478 83.5217 103.897 83.0979 103.203C82.657 103.956 82.2841 104.548 81.9547 105.165C81.4799 106.053 80.8042 106.423 79.8112 106.101C78.8787 105.465 78.8908 104.647 79.3558 103.743C79.988 102.703 80.5886 101.643 81.262 100.63C82.2114 99.1999 83.9552 99.1903 84.9459 100.593C85.314 101.116 85.6337 101.674 85.9752 102.214C86.8447 103.702 87.7118 105.187 88.7024 106.882C89.1602 106.043 89.5017 105.407 89.8504 104.776C90.3179 103.929 90.9961 103.339 92.0036 103.414C92.987 103.486 93.6579 104.055 93.9703 105.013C94.3263 106.103 94.6896 107.192 95.1353 108.547C95.656 108.15 96.3027 107.869 96.62 107.378C97.7172 105.683 98.6714 103.897 99.7323 102.18C100.333 101.208 101.033 100.293 101.687 99.3548C102.249 99.2822 102.813 99.2096 103.375 99.1395C105.465 100.09 106.199 102.139 107.248 104.11C107.999 103.409 108.699 102.85 109.285 102.19C110.886 100.383 112.264 98.4356 112.862 96.0409C112.998 95.6829 113.167 95.3345 113.264 94.9644C113.855 92.7318 113.991 90.4774 113.656 88.1818C113.46 86.8418 113.39 86.7257 112.109 86.9772C104.794 88.4189 97.4822 89.8702 90.1677 91.3167C81.5938 93.0148 73.0174 94.6959 64.4483 96.4279C63.3487 96.6577 62.5761 96.4206 62.019 95.4676ZM73.9814 137.397C72.5257 137.397 71.0677 137.397 69.6242 137.397C69.6242 138.016 69.6242 138.512 69.6242 139.054C70.7988 139.054 71.913 139.054 73.0271 139.054C73.187 139.066 73.3468 139.09 73.5067 139.09C88.6733 139.092 103.84 139.092 119.009 139.09C119.254 139.09 119.496 139.042 119.719 139.018C119.719 138.437 119.719 137.936 119.719 137.363C119.343 137.363 119.026 137.363 118.709 137.363C104.121 137.363 89.5332 137.363 74.9453 137.365C74.6256 137.363 74.3035 137.385 73.9814 137.397ZM96.155 134.409C96.3729 134.429 96.4965 134.451 96.6224 134.451C106.64 134.453 116.655 134.455 126.672 134.448C127.714 134.448 127.997 134.165 128.002 133.13C128.017 130.781 128.007 128.432 128.007 126.086C128.007 124.504 127.891 124.39 126.299 124.39C116.573 124.39 106.846 124.39 97.1189 124.39C96.8065 124.39 96.4965 124.39 96.155 124.39C96.155 127.777 96.155 131.05 96.155 134.409ZM93.1904 124.429C92.9748 124.412 92.8489 124.395 92.7254 124.395C82.7079 124.393 72.6929 124.393 62.6754 124.398C61.5467 124.398 61.3481 124.611 61.3433 125.789C61.3336 128.103 61.3384 130.421 61.3409 132.736C61.3409 134.293 61.5031 134.455 63.0484 134.455C72.7752 134.455 82.502 134.455 92.2289 134.455C92.5389 134.455 92.8513 134.455 93.1904 134.455C93.1904 131.059 93.1904 127.787 93.1904 124.429Z" fill="#040303"/>
<path d="M45.1666 55.8705C45.6583 55.0263 46.0531 54.1047 46.6634 53.3548C47.7146 52.0631 49.1751 51.4898 50.839 51.5189C51.3161 51.5261 51.5826 51.4681 51.7473 50.9407C52.5102 48.5243 54.2637 47.2785 56.7221 47.027C58.914 46.802 61.089 48.055 62.065 50.128C63.1065 52.3413 62.8159 54.4336 61.2343 56.3252C61.1737 56.3978 61.1205 56.48 61.026 56.6082C61.9246 57.8733 62.7868 59.1916 63.775 60.4107C64.0729 60.7784 64.7147 60.8776 65.2064 61.0784C71.7628 63.7319 76.9338 67.89 79.46 74.6895C80.6783 77.9671 80.4554 81.2931 78.5106 84.3168C76.2072 87.8992 71.5351 89.0336 67.161 87.0792C63.2082 85.3134 60.5561 82.2752 58.8874 78.3324C57.4075 74.8322 56.5017 71.216 56.6421 67.382C56.6518 67.1159 56.5695 66.7966 56.4193 66.5814C55.3997 65.1034 54.3485 63.6472 53.2755 62.1403C51.895 62.7208 50.4926 62.8659 49.1121 62.4088C47.5208 61.8814 46.3195 60.8607 45.6535 59.2739C45.5227 58.9642 45.3313 58.6788 45.1666 58.3813C45.1666 57.5443 45.1666 56.7074 45.1666 55.8705ZM64.9133 64.0681C64.5815 63.9472 64.257 63.8045 63.9179 63.7101C61.5104 63.0304 59.9264 64.102 59.6576 66.5814C59.6479 66.6781 59.6406 66.7749 59.6358 66.8692C59.3088 71.7288 60.6264 76.1699 63.2494 80.2022C64.8431 82.6501 67.1053 84.3264 70.0408 84.9336C72.9617 85.5383 75.6308 84.2442 76.5754 81.7866C77.6217 79.4596 77.2899 77.1375 76.447 74.8637C75.4007 72.0384 73.4001 69.8953 71.1718 67.9698C69.2972 66.354 67.3136 64.8664 64.9133 64.0681ZM57.5795 63.1538C58.5289 62.3289 59.4347 61.5452 60.3793 60.7252C59.7544 59.8471 59.0666 58.882 58.3787 57.9169C57.1774 56.2309 57.2113 55.9745 58.8147 54.6078C59.6769 53.8749 59.9579 52.7211 59.5437 51.6398C59.1247 50.5513 58.0615 49.8547 56.9061 49.9103C55.838 49.9635 54.7481 50.7932 54.5011 51.8357C54.3921 52.2929 54.4333 52.7912 54.4502 53.2701C54.5035 54.7263 53.5565 55.3528 52.1856 54.8037C51.6649 54.5957 51.0764 54.4094 50.529 54.4312C49.3712 54.482 48.4799 55.2972 48.1748 56.3978C47.8793 57.4669 48.308 58.6256 49.2453 59.2787C50.1947 59.9415 51.3355 59.9197 52.4036 59.2182C53.6606 58.3934 54.2419 58.4974 55.126 59.7214C55.9664 60.8897 56.7972 62.0604 57.5795 63.1538Z" fill="#040303"/>
<path d="M57.1023 97.8938C57.6085 97.739 58.2431 97.7172 58.5821 97.3907C58.9551 97.0303 59.052 96.3892 59.27 95.8692C60.1879 95.7361 61.1035 95.6007 62.0214 95.4676C62.5785 96.4231 63.3511 96.6577 64.4507 96.4352C73.0174 94.7033 81.5962 93.0221 90.1701 91.3241C97.4846 89.8751 104.797 88.4262 112.111 86.9845C113.392 86.733 113.463 86.8491 113.659 88.1892C113.993 90.4823 113.857 92.7391 113.266 94.9718C113.17 95.3394 113 95.6902 112.864 96.0482C112.649 96.0917 112.399 96.0796 112.223 96.1885C109.946 97.5842 107.393 98.1091 104.818 98.5904C104.322 98.6824 103.857 98.9581 103.377 99.1492C102.815 99.2218 102.251 99.2943 101.689 99.3645C101.432 99.3597 101.168 99.3113 100.921 99.3597C97.8528 99.9595 94.7889 100.588 91.7178 101.184C89.8068 101.554 87.8886 101.88 85.9752 102.226C85.6337 101.684 85.3164 101.125 84.9458 100.605C83.9552 99.2048 82.2114 99.2121 81.2619 100.642C80.5886 101.655 79.9879 102.717 79.3558 103.755C78.2538 103.929 77.1421 104.067 76.0497 104.287C73.7222 104.754 71.3825 105.01 69.0162 104.708C65.4583 104.251 62.3024 102.811 59.5413 100.569C58.6112 99.8144 57.9064 98.7912 57.1023 97.8938Z" fill="#726D6D"/>
<path d="M103.884 61.7335C105.337 60.512 106.7 59.2832 108.163 58.185C108.575 57.8754 109.328 57.7738 109.83 57.9165C110.183 58.0157 110.585 58.693 110.578 59.1042C110.571 59.5686 110.22 60.1249 109.854 60.4636C108.723 61.511 107.529 62.4955 106.325 63.4606C105.862 63.8307 105.826 64.1355 106.049 64.6749C107.589 68.4 106.201 72.2267 102.67 74.2368C102.331 74.4303 102.004 74.8416 101.898 75.2165C100.718 79.4084 97.2255 82.1321 92.9143 82.1708C88.7581 82.2071 85.096 79.4133 83.9359 75.3229C82.4294 70.0037 86.3458 64.2903 91.8462 63.7315C92.3306 63.6832 92.9361 63.4485 93.2267 63.0929C95.8207 59.9193 99.8485 59.2154 103.317 61.3997C103.482 61.4965 103.649 61.5932 103.884 61.7335ZM101.52 63.7194C101.265 63.5695 101.137 63.4727 100.994 63.4122C98.824 62.4906 96.4577 63.2598 95.2515 65.3401C94.7938 66.1311 94.2585 66.6729 93.2873 66.6052C90.9742 66.448 89.1601 67.372 87.7917 69.1934C86.261 71.2277 86.1423 74.053 87.4575 76.1792C88.8647 78.453 91.4853 79.6624 93.9751 79.1859C96.6127 78.6828 98.715 76.7743 99.0904 74.3094C99.2914 72.9935 99.7831 72.2219 101.093 71.7212C103.365 70.8528 104.443 67.9477 103.322 66.0585C102.992 66.3222 102.665 66.5762 102.35 66.8422C99.817 68.9781 97.2909 71.1213 94.7502 73.2475C94.4619 73.487 94.0478 73.8401 93.7741 73.7772C93.2364 73.6515 92.5946 73.3902 92.2918 72.9693C91.8898 72.413 92.1077 71.7333 92.6697 71.2543C94.3094 69.8562 95.9515 68.4605 97.5912 67.0624C98.8845 65.9642 100.173 64.866 101.52 63.7194Z" fill="#030302"/>
<path d="M53.5056 92.8043C50.1899 92.8139 47.4869 90.129 47.4821 86.8247C47.4772 83.5326 50.1971 80.7993 53.4862 80.792C56.7729 80.7872 59.4977 83.5084 59.5025 86.803C59.505 90.1217 56.8311 92.797 53.5056 92.8043ZM56.5889 86.7885C56.5743 85.0589 55.1332 83.6511 53.4233 83.6971C51.7424 83.7406 50.3764 85.1509 50.3885 86.832C50.4006 88.5712 51.8005 89.9185 53.5637 89.8919C55.2689 89.8677 56.6058 88.4962 56.5889 86.7885Z" fill="#040303"/>
<path d="M86.9706 54.7306C86.9561 58.0445 84.2555 60.7199 80.9422 60.7053C77.641 60.6908 74.9308 57.9671 74.9477 54.6774C74.9647 51.3805 77.687 48.6931 80.9955 48.7076C84.3137 48.7221 86.9876 51.4167 86.9706 54.7306ZM80.9277 57.8027C82.6667 57.8196 84.0521 56.4529 84.0569 54.7186C84.0618 52.9745 82.6982 51.6078 80.9519 51.6103C79.2686 51.6127 77.8856 52.9673 77.8541 54.6436C77.8226 56.361 79.208 57.7857 80.9277 57.8027Z" fill="#040303"/>
<path d="M120.191 91.9699C122.092 91.578 123.996 91.1837 125.9 90.7967C127.225 90.5258 127.532 90.2041 127.639 88.9341C128.571 88.7696 129.504 88.6076 130.439 88.4431C131.139 89.534 131.509 89.684 132.849 89.4155C134.607 89.0648 136.363 88.6947 138.126 88.3657C139.805 88.0536 140.827 88.7551 141.209 90.4218C140.824 90.4435 140.429 90.4193 140.054 90.4943C135.062 91.4812 130.085 92.5407 125.079 93.4502C123.282 93.7816 121.453 93.6607 120.191 91.9699Z" fill="#F04444"/>
<path d="M57.1023 97.8936C57.9064 98.791 58.6112 99.8142 59.5365 100.564C62.2976 102.806 65.4534 104.248 69.0114 104.703C71.3777 105.005 73.7174 104.751 76.0449 104.282C77.1397 104.062 78.249 103.926 79.351 103.75C78.886 104.654 78.8738 105.472 79.8063 106.108C79.4018 106.952 78.9949 107.797 78.5905 108.641C77.3044 108.672 76.8151 108.914 76.6456 110.162C76.4228 111.795 75.5896 112.351 74.0225 112.542C71.5424 112.845 69.1083 113.5 66.6305 113.832C62.0529 114.444 57.9694 113.089 54.3582 110.319C51.1805 107.884 49.1969 104.65 48.2377 100.765C48.0391 99.9545 48.2087 99.6037 49.0636 99.4489C51.7497 98.9675 54.4236 98.4185 57.1023 97.8936Z" fill="#595454"/>
<path d="M102.009 121.35C100.207 121.367 98.4074 121.396 96.6055 121.398C91.5846 121.405 86.5613 121.383 81.5405 121.42C80.7945 121.425 80.3004 121.248 80.0461 120.539C79.7555 119.729 79.4648 118.919 79.1742 118.108C80.4385 115.522 81.6882 112.932 82.9719 110.358C83.3909 109.519 83.9649 109.531 84.43 110.37C84.786 111.014 85.0888 111.689 85.3867 112.363C85.9994 113.747 86.5928 115.138 87.3098 116.797C87.5374 116.415 87.6101 116.309 87.6682 116.195C88.3585 114.828 89.0342 113.452 89.7487 112.1C89.8989 111.814 90.1871 111.427 90.4342 111.413C90.6667 111.398 90.9549 111.785 91.1632 112.042C91.2964 112.206 91.3255 112.453 91.4005 112.663C91.0929 113.616 91.1947 114.436 92.1586 114.973C92.614 116.761 92.6551 118.561 92.3524 120.375C92.3379 120.401 92.3209 120.428 92.3064 120.455C92.3209 120.428 92.3354 120.399 92.35 120.372C92.5728 120.244 92.8271 120.15 93.0112 119.981C95.1522 118.012 97.0535 115.847 98.4244 113.261C98.9645 112.24 99.4077 111.166 100.004 110.179C100.631 109.139 101.239 109.069 101.948 109.995C103.201 111.628 103.511 113.607 103.285 115.554C103.063 117.513 102.45 119.422 102.009 121.35Z" fill="#FE873E"/>
<path d="M92.3523 120.378C92.6551 118.563 92.6139 116.764 92.1586 114.976C92.9263 115.114 93.5052 114.797 94.072 114.299C98.1288 110.741 99.071 109.493 102.961 102.284C103.469 103.208 104.007 103.994 104.361 104.855C106.01 108.883 106.197 112.947 104.62 117.069C104.409 117.618 104.431 118.423 104.685 118.946C105.051 119.7 105.872 119.541 106.584 119.337C106.405 119.531 106.257 119.783 106.039 119.908C105.16 120.414 104.259 120.878 103.365 121.357C102.912 121.355 102.462 121.355 102.009 121.352C102.45 119.425 103.062 117.514 103.288 115.562C103.513 113.614 103.203 111.636 101.951 110.003C101.239 109.076 100.631 109.147 100.006 110.187C99.4125 111.174 98.9669 112.248 98.4268 113.268C97.0559 115.854 95.1546 118.019 93.0135 119.988C92.827 120.155 92.5727 120.247 92.3523 120.378Z" fill="#F75757"/>
<path d="M73.9814 137.397C74.3035 137.385 74.6232 137.363 74.9453 137.363C89.5332 137.36 104.121 137.36 118.709 137.36C119.026 137.36 119.343 137.36 119.719 137.36C119.719 137.934 119.719 138.434 119.719 139.015C119.496 139.039 119.251 139.087 119.009 139.087C103.842 139.09 88.6758 139.09 73.5067 139.087C73.3468 139.087 73.187 139.063 73.0271 139.051C73.0368 138.325 73.3492 137.769 73.9814 137.397Z" fill="#F34545"/>
<path d="M91.4005 112.666C91.3254 112.456 91.2964 112.209 91.1632 112.044C90.9573 111.788 90.6666 111.401 90.4341 111.415C90.1895 111.43 89.9013 111.817 89.7487 112.102C89.0342 113.457 88.3585 114.831 87.6682 116.198C87.61 116.311 87.5374 116.418 87.3097 116.8C86.5904 115.141 85.9994 113.75 85.3866 112.366C85.0887 111.694 84.7836 111.019 84.4299 110.373C83.9649 109.531 83.3909 109.521 82.9719 110.361C81.6882 112.937 80.4385 115.528 79.1742 118.111C78.4912 115.791 78.6994 113.486 79.3679 111.212C79.6804 110.148 79.6537 109.258 78.5905 108.643C78.9949 107.799 79.4018 106.955 79.8063 106.111C80.7993 106.432 81.4751 106.062 81.9498 105.175C82.2792 104.558 82.6522 103.965 83.093 103.213C83.5168 103.907 83.8777 104.488 84.2289 105.073C85.1347 106.587 86.0285 108.109 86.9392 109.618C87.7893 111.026 88.6927 111.111 89.8456 109.899C90.1774 109.55 90.5141 109.202 90.8144 108.83C91.1123 108.459 91.369 108.058 91.7638 107.499C92.1804 109.393 92.1949 111.053 91.4005 112.666Z" fill="#F85757"/>
<path d="M120.191 91.97C121.453 93.6608 123.282 93.7818 125.076 93.4552C130.083 92.5457 135.06 91.4862 140.052 90.4993C140.427 90.4243 140.819 90.4485 141.207 90.4268C141.452 91.7523 140.316 92.9158 139.068 93.1504C135.881 93.7455 132.706 94.4059 129.526 95.0324C124.989 95.9273 120.453 96.8199 115.916 97.7101C115.829 97.727 115.732 97.7125 115.546 97.7125C115.834 96.5176 116.141 95.3613 116.384 94.1906C116.703 92.6473 116.682 92.6376 118.297 92.3062C118.927 92.1756 119.561 92.0813 120.191 91.97Z" fill="#D32F2F"/>
<path d="M85.9703 102.224C87.8837 101.878 89.8044 101.551 91.7129 101.181C94.7841 100.586 97.8479 99.9596 100.917 99.3573C101.164 99.3089 101.428 99.3573 101.684 99.3621C101.03 100.303 100.33 101.215 99.7298 102.187C98.669 103.907 97.7123 105.692 96.6175 107.386C96.3002 107.879 95.6536 108.16 95.1328 108.554C94.6848 107.202 94.3239 106.113 93.9678 105.02C93.6554 104.062 92.9845 103.494 92.0012 103.421C90.9936 103.346 90.3154 103.934 89.848 104.783C89.4992 105.414 89.1553 106.05 88.7 106.89C87.7069 105.196 86.8398 103.711 85.9703 102.224Z" fill="#595454"/>
<path d="M103.373 99.1445C103.852 98.9534 104.315 98.6801 104.814 98.5857C107.388 98.1044 109.941 97.5795 112.218 96.1838C112.395 96.0749 112.644 96.087 112.86 96.0435C112.261 98.4382 110.883 100.385 109.282 102.192C108.696 102.853 107.996 103.411 107.245 104.113C106.199 102.144 105.463 100.095 103.373 99.1445Z" fill="#595454"/>
<path d="M103.365 121.357C104.259 120.878 105.16 120.411 106.039 119.908C106.257 119.782 106.405 119.531 106.584 119.337C106.584 119.337 106.599 119.345 106.599 119.347C106.684 119.299 106.768 119.25 106.853 119.202L106.839 119.212C106.969 119.139 107.103 119.066 107.233 118.994L107.214 119.008C107.35 118.924 107.483 118.837 107.618 118.752C108.272 118.331 108.926 117.91 109.58 117.489C109.706 117.763 109.931 118.034 109.934 118.307C109.939 118.875 109.825 119.446 109.759 120.017C108.936 120.987 107.974 121.57 106.613 121.427C105.54 121.311 104.448 121.372 103.365 121.357Z" fill="#FB853E"/>
<path d="M73.9813 137.397C73.3492 137.769 73.0343 138.326 73.0246 139.054C71.9105 139.054 70.7988 139.054 69.6217 139.054C69.6217 138.512 69.6217 138.016 69.6217 137.397C71.0701 137.397 72.5257 137.397 73.9813 137.397Z" fill="#CD3535"/>
<path d="M109.759 120.014C109.825 119.444 109.939 118.875 109.934 118.304C109.931 118.031 109.704 117.758 109.58 117.487C110.476 116.713 111.372 115.936 112.269 115.162L112.276 115.169C112.22 117.189 111.155 118.686 109.759 120.014Z" fill="#F05554"/>
<path d="M107.618 118.75C107.483 118.834 107.35 118.921 107.214 119.006C107.35 118.919 107.483 118.834 107.618 118.75Z" fill="#F75757"/>
<path d="M112.269 115.162C112.298 115.121 112.324 115.08 112.353 115.037C112.368 115.061 112.383 115.085 112.395 115.109C112.353 115.129 112.315 115.15 112.274 115.17C112.276 115.167 112.269 115.162 112.269 115.162Z" fill="#F05554"/>
<path d="M76.5754 81.7886C75.6308 84.2462 72.9618 85.5379 70.0408 84.9356C67.1029 84.3285 64.8407 82.6498 63.2495 80.2042C60.624 76.1719 59.3064 71.7284 59.6358 66.8713C59.6431 66.7745 59.6479 66.6777 59.6576 66.5834C59.9265 64.104 61.5105 63.0324 63.9179 63.7122C64.257 63.8065 64.5816 63.9492 64.9134 64.0702C65.1653 65.8021 65.2767 67.5679 65.7005 69.2563C66.5652 72.7081 67.97 75.9204 70.593 78.4626C72.2884 80.1027 74.3229 81.1428 76.5754 81.7886Z" fill="#F56F26"/>
<path d="M76.5753 81.7888C74.3229 81.1429 72.286 80.1028 70.593 78.4628C67.9723 75.9229 66.5651 72.7106 65.7005 69.2564C65.2766 67.568 65.1652 65.7998 64.9133 64.0703C67.3136 64.8686 69.2972 66.3538 71.1718 67.972C73.4001 69.895 75.4031 72.0382 76.447 74.8659C77.2898 77.1396 77.6241 79.4618 76.5753 81.7888Z" fill="#FD873D"/>
<path d="M57.5794 63.1534C56.7971 62.06 55.9664 60.8868 55.1259 59.7234C54.2419 58.4994 53.6606 58.393 52.4036 59.2202C51.3355 59.9217 50.1947 59.9435 49.2453 59.2807C48.3104 58.6252 47.8792 57.4689 48.1747 56.3998C48.4799 55.3016 49.3712 54.484 50.5289 54.4332C51.0763 54.409 51.6624 54.5953 52.1856 54.8057C53.5565 55.3548 54.501 54.7283 54.4502 53.2721C54.4332 52.7932 54.3921 52.2949 54.501 51.8377C54.7481 50.7952 55.838 49.9655 56.9061 49.9123C58.0614 49.8566 59.1247 50.5533 59.5437 51.6418C59.9603 52.723 59.6769 53.8769 58.8147 54.6098C57.2113 55.9765 57.1774 56.2329 58.3787 57.9189C59.0665 58.884 59.752 59.8491 60.3793 60.7272C59.4347 61.5472 58.5313 62.3309 57.5794 63.1534Z" fill="#E7DDD8"/>
<path d="M101.52 63.7195C100.176 64.866 98.8846 65.9642 97.5937 67.0648C95.954 68.4629 94.3118 69.8586 92.6721 71.2568C92.1102 71.7357 91.8922 72.4154 92.2943 72.9718C92.597 73.3902 93.2389 73.6539 93.7766 73.7797C94.0478 73.8426 94.4644 73.4894 94.7526 73.2499C97.2933 71.1237 99.8195 68.9806 102.353 66.8447C102.668 66.5786 102.995 66.327 103.324 66.061C104.446 67.9525 103.368 70.8552 101.096 71.7236C99.7856 72.2243 99.2939 72.9984 99.0929 74.3118C98.7175 76.7767 96.6152 78.6828 93.9776 79.1883C91.4878 79.6625 88.8647 78.4554 87.4599 76.1816C86.1424 74.053 86.2635 71.2302 87.7942 69.1959C89.1626 67.3768 90.9767 66.4528 93.2897 66.6076C94.261 66.6729 94.7962 66.1311 95.254 65.3425C96.4602 63.2623 98.8265 62.4907 100.997 63.4147C101.137 63.4727 101.265 63.5695 101.52 63.7195Z" fill="#6C9013"/>
<path d="M56.5889 86.7887C56.6034 88.4965 55.2689 89.868 53.5638 89.8922C51.8005 89.9188 50.403 88.5691 50.3885 86.8323C50.3764 85.1511 51.74 83.7409 53.4233 83.6974C55.1332 83.6514 56.5743 85.0592 56.5889 86.7887Z" fill="#D32F2F"/>
<path d="M80.9277 57.8028C79.208 57.7858 77.8202 56.3611 77.8541 54.6461C77.8856 52.9674 79.2686 51.6128 80.9519 51.6128C82.6982 51.6104 84.0618 52.9746 84.0569 54.7211C84.0545 56.453 82.6667 57.8197 80.9277 57.8028Z" fill="#D22F2F"/>
<path d="M92.3524 120.377C92.3379 120.404 92.3234 120.433 92.3088 120.46C92.3234 120.433 92.3379 120.406 92.3524 120.377Z" fill="#F75757"/>
</g>
<defs>
<clipPath id="clip0_128_3496">
<rect width="99" height="95" fill="white" transform="translate(45.1666 47)"/>
</clipPath>
</defs>
</svg>
