<svg width="190" height="190" viewBox="0 0 190 190" fill="none" xmlns="http://www.w3.org/2000/svg">
<circle cx="95" cy="95" r="95" fill="#EBEEE7"/>
<path d="M56.3951 138.731C56.3951 141.122 54.4575 143.059 52.0671 143.059C49.6767 143.059 47.7391 141.122 47.7391 138.731V99.8063C47.7391 97.4159 49.6767 95.4775 52.0671 95.4775C54.4575 95.4775 56.3951 97.4159 56.3951 99.8063V138.731Z" fill="#80C3FF"/>
<path d="M52.0671 95.4775C54.4575 95.4775 56.3951 97.4159 56.3951 99.8063V138.731C56.3951 141.122 54.4575 143.059 52.0671 143.059" fill="#2A8BF4"/>
<path d="M56.3951 138.731C56.3951 141.122 54.4575 143.059 52.0671 143.059C49.6767 143.059 47.7391 141.122 47.7391 138.731V99.8063C47.7391 97.4159 49.6767 95.4775 52.0671 95.4775C54.4575 95.4775 56.3951 97.4159 56.3951 99.8063V138.731Z" stroke="#33363A" stroke-width="3" stroke-miterlimit="10" stroke-linecap="round" stroke-linejoin="round"/>
<path d="M52.0671 135.438V136.505" stroke="#33363A" stroke-width="3" stroke-miterlimit="10" stroke-linecap="round" stroke-linejoin="round"/>
<path d="M52.0671 61.2974V78.231" stroke="#33363A" stroke-width="3" stroke-miterlimit="10" stroke-linecap="round" stroke-linejoin="round"/>
<path d="M52.0671 81.5552V94.4888" stroke="#33363A" stroke-width="5" stroke-miterlimit="10" stroke-linecap="round" stroke-linejoin="round"/>
<path d="M57.5952 61.6973V72.3741C57.5952 75.4269 55.12 77.9021 52.0672 77.9021C49.0144 77.9021 46.5392 75.4269 46.5392 72.3741V61.6973" stroke="#33363A" stroke-width="3" stroke-miterlimit="10" stroke-linecap="round" stroke-linejoin="round"/>
<path d="M57.9488 80.8197C57.9488 82.6589 56.4568 84.1501 54.6176 84.1501H49.5176C47.6784 84.1501 46.188 82.6589 46.188 80.8197V74.6549C46.188 72.8149 47.6784 71.3237 49.5176 71.3237H54.6176C56.4568 71.3237 57.9488 72.8149 57.9488 74.6549V80.8197Z" fill="#33363A"/>
<path d="M57.9488 80.8197C57.9488 82.6589 56.4568 84.1501 54.6176 84.1501H49.5176C47.6784 84.1501 46.188 82.6589 46.188 80.8197V74.6549C46.188 72.8149 47.6784 71.3237 49.5176 71.3237H54.6176C56.4568 71.3237 57.9488 72.8149 57.9488 74.6549V80.8197Z" stroke="#33363A" stroke-width="3" stroke-miterlimit="10" stroke-linecap="round" stroke-linejoin="round"/>
<path d="M143.749 103.695C143.749 126.382 125.358 144.775 102.667 144.775C79.9815 144.775 61.5887 126.383 61.5887 103.695C61.5887 81.0071 79.9807 62.6143 102.667 62.6143C125.358 62.6151 143.749 81.0071 143.749 103.695Z" fill="white"/>
<path d="M102.667 62.6152C125.358 62.6152 143.749 81.0072 143.749 103.696C143.749 126.383 125.358 144.776 102.667 144.776" fill="#C8DBDB"/>
<path d="M143.749 103.695C143.749 126.382 125.358 144.775 102.667 144.775C79.9815 144.775 61.5887 126.383 61.5887 103.695C61.5887 81.0071 79.9807 62.6143 102.667 62.6143C125.358 62.6151 143.749 81.0071 143.749 103.695Z" stroke="#33363A" stroke-width="3" stroke-miterlimit="10" stroke-linecap="round" stroke-linejoin="round"/>
<path d="M102.667 130.99C117.741 130.99 129.962 118.77 129.962 103.695C129.962 88.621 117.741 76.4009 102.667 76.4009C87.5929 76.4009 75.3728 88.621 75.3728 103.695C75.3728 118.77 87.5929 130.99 102.667 130.99Z" fill="white"/>
<path d="M75.3738 103.695C75.3738 88.6209 87.5938 76.4009 102.667 76.4009C117.744 76.4009 129.963 88.6209 129.963 103.695" fill="#C8DBDB"/>
<path d="M102.667 130.99C117.741 130.99 129.962 118.77 129.962 103.695C129.962 88.621 117.741 76.4009 102.667 76.4009C87.5929 76.4009 75.3728 88.621 75.3728 103.695C75.3728 118.77 87.5929 130.99 102.667 130.99Z" stroke="#33363A" stroke-width="3" stroke-miterlimit="10" stroke-linecap="round" stroke-linejoin="round"/>
<path d="M102.668 120.185C111.776 120.185 119.159 112.801 119.159 103.693C119.159 94.5855 111.776 87.2021 102.668 87.2021C93.5601 87.2021 86.1768 94.5855 86.1768 103.693C86.1768 112.801 93.5601 120.185 102.668 120.185Z" fill="#C8DBDB"/>
<path d="M102.667 120.185C93.5592 120.185 86.1768 112.801 86.1768 103.693C86.1768 94.5853 93.56 87.2021 102.667 87.2021" fill="white"/>
<path d="M141.887 88.1999C136.212 62.5503 110.82 46.3591 85.1703 52.0343L95.4487 98.4751L141.887 88.1999Z" fill="#83ED88"/>
<path d="M136.747 89.3385C131.702 66.5273 109.119 52.1273 86.308 57.1745L95.4488 98.4745L136.747 89.3385Z" fill="#5FCE96"/>
<path d="M133.521 90.0511C128.869 69.0223 108.051 55.7471 87.0215 60.3999L95.4479 98.4751L133.521 90.0511Z" fill="#F42535"/>
<path d="M95.4487 98.4744L133.522 90.052C131.196 79.5368 124.829 70.9616 116.413 65.5952L95.4487 98.4744Z" fill="#FC4259"/>
<path d="M130.901 90.6303L133.521 90.0511C128.869 69.0223 108.051 55.7471 87.0215 60.3999L87.6047 63.0207C106.89 60.0631 125.447 71.8951 130.901 90.6303Z" fill="#D60024"/>
<path d="M131.505 83.6398C128.392 76.0494 123.042 69.823 116.413 65.5942L114.439 68.6894C122.17 73.6206 128.174 81.2622 130.902 90.6302L133.522 90.051C133.166 88.439 132.705 86.8806 132.166 85.3662C131.956 84.783 131.738 84.207 131.505 83.6398Z" fill="#F42535"/>
<path d="M87.0215 60.3999L95.4487 98.4751L133.521 90.0511L98.4063 93.8351L87.0215 60.3999Z" fill="#FC4259"/>
<path d="M98.4063 93.8329L95.4487 98.4745V98.4753L133.522 90.0513L98.4063 93.8353V93.8329Z" fill="#FF647E"/>
<path d="M141.887 88.1999C136.212 62.5503 110.82 46.3591 85.1703 52.0343L95.4487 98.4751L141.887 88.1999Z" stroke="#33363A" stroke-width="3" stroke-miterlimit="10" stroke-linecap="round" stroke-linejoin="round"/>
<path d="M133.521 90.0511C128.869 69.0223 108.051 55.7471 87.0215 60.3999" stroke="#33363A" stroke-width="3" stroke-miterlimit="10" stroke-linecap="round" stroke-linejoin="round"/>
<path d="M109.23 88.7225C109.23 101.455 98.9063 111.775 86.1767 111.775C73.4439 111.775 63.1223 101.455 63.1223 88.7225C63.1223 75.9905 73.4439 65.6689 86.1767 65.6689C98.9063 65.6689 109.23 75.9905 109.23 88.7225Z" fill="#A07F3C"/>
<path d="M109.23 88.7227C109.23 101.455 98.9063 111.775 86.1767 111.775C73.4439 111.775 63.1223 101.455 63.1223 88.7227" fill="#84692C"/>
<path d="M86.1768 65.6689V111.775C98.9064 111.775 109.23 101.455 109.23 88.7233C109.23 75.9913 98.9064 65.6689 86.1768 65.6689Z" fill="#84692C"/>
<path d="M86.1768 88.7227V111.775C98.9064 111.775 109.23 101.455 109.23 88.7227H86.1768Z" fill="#705622"/>
<path d="M109.23 88.7225C109.23 101.455 98.9063 111.775 86.1767 111.775C73.4439 111.775 63.1223 101.455 63.1223 88.7225C63.1223 75.9905 73.4439 65.6689 86.1767 65.6689C98.9063 65.6689 109.23 75.9905 109.23 88.7225Z" stroke="#33363A" stroke-width="3" stroke-miterlimit="10" stroke-linecap="round" stroke-linejoin="round"/>
<path d="M86.176 104.225C94.7377 104.225 101.678 97.2839 101.678 88.7221C101.678 80.1604 94.7377 73.2197 86.176 73.2197C77.6142 73.2197 70.6736 80.1604 70.6736 88.7221C70.6736 97.2839 77.6142 104.225 86.176 104.225Z" fill="#BEDD05"/>
<path d="M70.6736 88.7221C70.6736 80.1605 77.6144 73.2197 86.1768 73.2197L70.6736 88.7221Z" fill="#DEF21D"/>
<path d="M70.6736 88.7222C70.6736 97.2846 77.6144 104.224 86.1768 104.224C94.7376 104.224 101.678 97.2846 101.678 88.7222H70.6736Z" fill="#85C606"/>
<path d="M70.6736 88.7222C70.6736 97.2846 77.6144 104.224 86.1768 104.224L70.6736 88.7222Z" fill="#BEDD05"/>
<path d="M86.1768 73.2197V104.224C94.7376 104.224 101.678 97.2845 101.678 88.7221C101.678 80.1605 94.7376 73.2197 86.1768 73.2197Z" fill="#85C606"/>
<path d="M101.678 88.7221C101.678 80.1605 94.7376 73.2197 86.1768 73.2197L101.678 88.7221Z" fill="#52C408"/>
<path d="M86.1768 88.7222V104.224C94.7376 104.224 101.678 97.2846 101.678 88.7222H86.1768Z" fill="#52C408"/>
<path d="M86.1768 104.224C94.7376 104.224 101.678 97.2846 101.678 88.7222L86.1768 104.224Z" fill="#25C10A"/>
<path d="M86.1769 94.227C89.2175 94.227 91.6825 91.7621 91.6825 88.7214C91.6825 85.6808 89.2175 83.2158 86.1769 83.2158C83.1362 83.2158 80.6713 85.6808 80.6713 88.7214C80.6713 91.7621 83.1362 94.227 86.1769 94.227Z" fill="#BEDD05"/>
<path d="M86.1769 94.227C89.2177 94.227 91.6817 91.763 91.6817 88.7222C91.6817 85.6814 89.2177 83.2158 86.1769 83.2158V94.227Z" fill="#85C606"/>
<path d="M80.6688 88.7222H91.6816C91.6816 85.6814 89.2176 83.2158 86.1768 83.2158C83.1344 83.2166 80.6688 85.6822 80.6688 88.7222Z" fill="#85C606"/>
<path d="M86.1769 88.7222H91.6817C91.6817 85.6814 89.2177 83.2158 86.1769 83.2158V88.7222Z" fill="#52C408"/>
<path d="M86.176 92.0235C87.999 92.0235 89.4768 90.5457 89.4768 88.7227C89.4768 86.8997 87.999 85.4219 86.176 85.4219C84.3531 85.4219 82.8752 86.8997 82.8752 88.7227C82.8752 90.5457 84.3531 92.0235 86.176 92.0235Z" fill="#BEDD05"/>
<path d="M89.4768 88.7223C89.4768 86.8991 88 85.4215 86.1768 85.4199C84.352 85.4215 82.8752 86.8991 82.8752 88.7223H89.4768Z" fill="#85C606"/>
<path d="M86.1768 92.0239V85.4199C84.352 85.4215 82.8752 86.8991 82.8752 88.7223C82.8752 90.5455 84.3512 92.0239 86.1768 92.0239Z" fill="#85C606"/>
<path d="M86.1768 88.7223V85.4199C84.352 85.4215 82.8752 86.8991 82.8752 88.7223H86.1768Z" fill="#52C408"/>
<path d="M86.1768 104.224C94.7381 104.224 101.678 97.2836 101.678 88.7223C101.678 80.161 94.7381 73.2207 86.1768 73.2207C77.6155 73.2207 70.6752 80.161 70.6752 88.7223C70.6752 97.2836 77.6155 104.224 86.1768 104.224Z" stroke="#33363A" stroke-width="3" stroke-miterlimit="10" stroke-linecap="round" stroke-linejoin="round"/>
<path d="M115.264 71.0976C113.231 77.0968 101.71 127.082 107.708 129.115C113.708 131.148 134.954 84.4584 136.988 78.46C139.022 72.4616 135.226 67.6696 129.226 65.6344C123.228 63.6024 117.298 65.0992 115.264 71.0976Z" fill="#FFE108"/>
<path d="M115.264 71.0975C113.231 77.0967 101.71 127.082 107.708 129.115C113.708 131.148 134.954 84.4583 136.988 78.4599C139.022 72.4615 134.063 71.0999 128.063 69.0663C122.066 67.0327 117.298 65.0991 115.264 71.0975Z" fill="#FFB206"/>
<path d="M115.264 71.0977C113.231 77.0969 101.71 127.082 107.708 129.115C113.708 131.148 134.954 84.4585 136.988 78.4601" fill="#FF8103"/>
<path d="M107.708 129.116C103.167 127.577 108.666 98.5625 112.49 81.9473L132.596 88.7633C125.528 104.276 112.25 130.654 107.708 129.116Z" fill="#FF6B06"/>
<path d="M107.708 129.116C104.326 127.969 106.516 111.566 109.433 96.4072L126.228 102.1C119.326 115.91 111.092 130.262 107.708 129.116Z" fill="#ED4706"/>
<path d="M107.708 129.116C105.346 128.314 105.703 120.066 107.128 109.999L119.795 114.292C114.803 123.15 110.072 129.917 107.708 129.116Z" fill="#D83705"/>
<path d="M115.264 71.0976C113.231 77.0968 101.71 127.082 107.708 129.115C113.708 131.148 134.954 84.4584 136.988 78.46C139.022 72.4616 135.226 67.6696 129.226 65.6344C123.228 63.6024 117.298 65.0992 115.264 71.0976Z" stroke="#33363A" stroke-width="3" stroke-miterlimit="10" stroke-linecap="round" stroke-linejoin="round"/>
<path d="M129.534 66.1479C130.631 65.9303 131.344 64.8615 131.125 63.7647C130.266 59.4463 133.076 55.2311 137.395 54.3703C138.494 54.1511 139.208 53.0839 138.989 51.9863C138.77 50.8887 137.702 50.1759 136.605 50.3951C130.092 51.6935 125.854 58.0463 127.15 64.5559C127.369 65.6543 128.439 66.3671 129.534 66.1479Z" fill="#92FC6B"/>
<path d="M137.13 53.0464C137.718 52.9288 138.29 53.084 138.738 53.4152C138.454 53.892 137.983 54.2536 137.395 54.3704C133.077 55.2312 130.266 59.4464 131.125 63.7648C131.343 64.8608 130.631 65.9296 129.534 66.148C128.716 66.312 127.914 65.956 127.469 65.3088C127.247 59.5056 131.258 54.2168 137.13 53.0464Z" fill="#70D63A"/>
<path d="M129.534 66.1479C130.631 65.9303 131.344 64.8615 131.125 63.7647C130.266 59.4463 133.076 55.2311 137.395 54.3703C138.494 54.1511 139.208 53.0839 138.989 51.9863C138.77 50.8887 137.702 50.1759 136.605 50.3951C130.092 51.6935 125.854 58.0463 127.15 64.5559C127.369 65.6543 128.439 66.3671 129.534 66.1479Z" stroke="#33363A" stroke-width="3" stroke-miterlimit="10" stroke-linecap="round" stroke-linejoin="round"/>
<path d="M130.534 65.703C131.375 64.9646 131.459 63.6838 130.72 62.843C127.815 59.5334 128.143 54.4774 131.454 51.5726C132.294 50.8334 132.379 49.5542 131.64 48.7126C130.901 47.871 129.622 47.7886 128.779 48.5262C123.789 52.9062 123.294 60.5294 127.674 65.5166C128.413 66.3582 129.692 66.4422 130.534 65.703Z" fill="#92FC6B"/>
<path d="M130.562 50.5569C131.011 50.1625 131.586 50.0097 132.136 50.0745C132.128 50.6273 131.903 51.1777 131.454 51.5721C128.143 54.4769 127.815 59.5329 130.72 62.8425C131.459 63.6833 131.374 64.9641 130.534 65.7025C129.908 66.2537 129.036 66.3457 128.325 66.0081C125.231 61.0937 126.061 54.5089 130.562 50.5569Z" fill="#70D63A"/>
<path d="M130.534 65.703C131.375 64.9646 131.459 63.6838 130.72 62.843C127.815 59.5334 128.143 54.4774 131.454 51.5726C132.294 50.8334 132.379 49.5542 131.64 48.7126C130.901 47.871 129.622 47.7886 128.779 48.5262C123.789 52.9062 123.294 60.5294 127.674 65.5166C128.413 66.3582 129.692 66.4422 130.534 65.703Z" stroke="#33363A" stroke-width="3" stroke-miterlimit="10" stroke-linecap="round" stroke-linejoin="round"/>
<path d="M129.733 62.7191C128.994 61.8783 129.078 60.5975 129.918 59.8583C133.226 56.9543 133.558 51.8983 130.651 48.5879C129.914 47.7471 129.997 46.4663 130.837 45.7279C131.676 44.9895 132.958 45.0735 133.698 45.9143C138.078 50.9031 137.581 58.5255 132.591 62.9039C131.751 63.6431 130.472 63.5599 129.733 62.7191Z" fill="#92FC6B"/>
<path d="M131.667 47.6974C131.273 47.2478 130.723 47.023 130.169 47.0142C130.105 47.5646 130.258 48.139 130.652 48.5878C133.558 51.8982 133.227 56.9542 129.919 59.8582C129.078 60.5974 128.994 61.8782 129.733 62.719C130.284 63.3462 131.137 63.551 131.884 63.3086C135.587 58.8366 135.618 52.199 131.667 47.6974Z" fill="#70D63A"/>
<path d="M129.733 62.7191C128.994 61.8783 129.078 60.5975 129.918 59.8583C133.226 56.9543 133.558 51.8983 130.651 48.5879C129.914 47.7471 129.997 46.4663 130.837 45.7279C131.676 44.9895 132.958 45.0735 133.698 45.9143C138.078 50.9031 137.581 58.5255 132.591 62.9039C131.751 63.6431 130.472 63.5599 129.733 62.7191Z" stroke="#33363A" stroke-width="3" stroke-miterlimit="10" stroke-linecap="round" stroke-linejoin="round"/>
<path d="M129.208 61.7575C128.991 60.6607 129.702 59.5927 130.8 59.3743C135.117 58.5135 137.93 54.2991 137.072 49.9807C136.854 48.8831 137.566 47.8167 138.662 47.5975C139.759 47.3775 140.826 48.0895 141.046 49.1879C142.345 55.6991 138.102 62.0511 131.592 63.3495C130.495 63.5679 129.426 62.8551 129.208 61.7575Z" fill="#92FC6B"/>
<path d="M138.395 49.7166C138.278 49.131 137.918 48.6622 137.441 48.3774C137.11 48.8214 136.954 49.3942 137.072 49.9806C137.93 54.299 135.118 58.5134 130.8 59.3742C129.702 59.5926 128.99 60.6606 129.208 61.7574C129.372 62.5766 130.01 63.1798 130.775 63.343C136.222 61.3222 139.567 55.5902 138.395 49.7166Z" fill="#70D63A"/>
<path d="M129.208 61.7575C128.991 60.6607 129.702 59.5927 130.8 59.3743C135.117 58.5135 137.93 54.2991 137.072 49.9807C136.854 48.8831 137.566 47.8167 138.662 47.5975C139.759 47.3775 140.826 48.0895 141.046 49.1879C142.345 55.6991 138.102 62.0511 131.592 63.3495C130.495 63.5679 129.426 62.8551 129.208 61.7575Z" stroke="#33363A" stroke-width="3" stroke-miterlimit="10" stroke-linecap="round" stroke-linejoin="round"/>
<path d="M128.38 68.0382C127.319 67.679 126.75 66.5278 127.11 65.4686C128.526 61.2974 126.282 56.7542 122.111 55.3406C121.052 54.9814 120.482 53.831 120.841 52.771C121.202 51.711 122.352 51.143 123.413 51.5014C129.698 53.6334 133.082 60.4822 130.949 66.7694C130.59 67.8294 129.441 68.3974 128.38 68.0382Z" fill="#92FC6B"/>
<path d="M122.544 54.0616C121.978 53.8696 121.39 53.948 120.906 54.2192C121.125 54.7272 121.546 55.1488 122.111 55.34C126.282 56.7544 128.526 61.2968 127.11 65.468C126.75 66.5272 127.319 67.6784 128.38 68.0376C129.169 68.3048 130.011 68.0552 130.536 67.4736C131.508 61.748 128.216 55.984 122.544 54.0616Z" fill="#70D63A"/>
<path d="M128.38 68.0382C127.319 67.679 126.75 66.5278 127.11 65.4686C128.526 61.2974 126.282 56.7542 122.111 55.3406C121.052 54.9814 120.482 53.831 120.841 52.771C121.202 51.711 122.352 51.143 123.413 51.5014C129.698 53.6334 133.082 60.4822 130.949 66.7694C130.59 67.8294 129.441 68.3974 128.38 68.0382Z" stroke="#33363A" stroke-width="3" stroke-miterlimit="10" stroke-linecap="round" stroke-linejoin="round"/>
<path d="M128.439 68.0582C129.497 68.4166 130.649 67.8486 131.008 66.7894C132.421 62.619 136.964 60.375 141.136 61.7886C142.194 62.147 143.344 61.5814 143.705 60.5206C144.064 59.4606 143.495 58.3094 142.434 57.9494C136.149 55.819 129.3 59.1998 127.169 65.4878C126.81 66.5486 127.378 67.699 128.439 68.0582Z" fill="#92FC6B"/>
<path d="M141.569 60.5101C142.134 60.7013 142.553 61.1221 142.774 61.6317C142.29 61.9021 141.702 61.9805 141.136 61.7885C136.964 60.3749 132.42 62.6189 131.008 66.7893C130.649 67.8485 129.497 68.4165 128.439 68.0581C127.646 67.7893 127.131 67.0797 127.067 66.2981C129.777 61.1605 135.895 58.5861 141.569 60.5101Z" fill="#70D63A"/>
<path d="M128.439 68.0582C129.497 68.4166 130.649 67.8486 131.008 66.7894C132.421 62.619 136.964 60.375 141.136 61.7886C142.194 62.147 143.344 61.5814 143.705 60.5206C144.064 59.4606 143.495 58.3094 142.434 57.9494C136.149 55.819 129.3 59.1998 127.169 65.4878C126.81 66.5486 127.378 67.699 128.439 68.0582Z" stroke="#33363A" stroke-width="3" stroke-miterlimit="10" stroke-linecap="round" stroke-linejoin="round"/>
<path d="M130.898 76.396L136.18 78.1864" stroke="#33363A" stroke-width="3" stroke-miterlimit="10" stroke-linecap="round" stroke-linejoin="round"/>
<path d="M127.056 75.0391L126.138 74.7471" stroke="#33363A" stroke-width="3" stroke-miterlimit="10" stroke-linecap="round" stroke-linejoin="round"/>
<path d="M122.239 73.438L122.602 73.5532" stroke="#33363A" stroke-width="3" stroke-miterlimit="10" stroke-linecap="round" stroke-linejoin="round"/>
<path d="M118.828 72.2822L119.189 72.3974" stroke="#33363A" stroke-width="3" stroke-miterlimit="10" stroke-linecap="round" stroke-linejoin="round"/>
<path d="M128.742 82.7563L134.023 84.5467" stroke="#33363A" stroke-width="3" stroke-miterlimit="10" stroke-linecap="round" stroke-linejoin="round"/>
<path d="M124.9 81.3986L123.981 81.1074" stroke="#33363A" stroke-width="3" stroke-miterlimit="10" stroke-linecap="round" stroke-linejoin="round"/>
<path d="M120.082 79.7993L120.446 79.9145" stroke="#33363A" stroke-width="3" stroke-miterlimit="10" stroke-linecap="round" stroke-linejoin="round"/>
<path d="M116.67 78.6426L117.034 78.757" stroke="#33363A" stroke-width="3" stroke-miterlimit="10" stroke-linecap="round" stroke-linejoin="round"/>
<path d="M126.256 89.0054L131.539 90.7958" stroke="#33363A" stroke-width="3" stroke-miterlimit="10" stroke-linecap="round" stroke-linejoin="round"/>
<path d="M122.417 87.6489L121.498 87.3569" stroke="#33363A" stroke-width="3" stroke-miterlimit="10" stroke-linecap="round" stroke-linejoin="round"/>
<path d="M117.597 86.0479L117.961 86.163" stroke="#33363A" stroke-width="3" stroke-miterlimit="10" stroke-linecap="round" stroke-linejoin="round"/>
<path d="M114.186 84.8911L114.549 85.0063" stroke="#33363A" stroke-width="3" stroke-miterlimit="10" stroke-linecap="round" stroke-linejoin="round"/>
<path d="M123.283 95.0874L128.562 96.8786" stroke="#33363A" stroke-width="3" stroke-miterlimit="10" stroke-linecap="round" stroke-linejoin="round"/>
<path d="M119.442 93.7313L118.522 93.4385" stroke="#33363A" stroke-width="3" stroke-miterlimit="10" stroke-linecap="round" stroke-linejoin="round"/>
<path d="M114.622 92.1304L114.984 92.2464" stroke="#33363A" stroke-width="3" stroke-miterlimit="10" stroke-linecap="round" stroke-linejoin="round"/>
<path d="M111.213 90.9736L111.574 91.0888" stroke="#33363A" stroke-width="3" stroke-miterlimit="10" stroke-linecap="round" stroke-linejoin="round"/>
<path d="M120.666 101.293L125.589 102.962" stroke="#33363A" stroke-width="3" stroke-miterlimit="10" stroke-linecap="round" stroke-linejoin="round"/>
<path d="M117.089 100.024L116.229 99.752" stroke="#33363A" stroke-width="3" stroke-miterlimit="10" stroke-linecap="round" stroke-linejoin="round"/>
<path d="M112.595 98.5347L112.933 98.6419" stroke="#33363A" stroke-width="3" stroke-miterlimit="10" stroke-linecap="round" stroke-linejoin="round"/>
<path d="M109.416 97.4561L109.753 97.5633" stroke="#33363A" stroke-width="3" stroke-miterlimit="10" stroke-linecap="round" stroke-linejoin="round"/>
<path d="M117.167 107.197L122.45 108.988" stroke="#33363A" stroke-width="3" stroke-miterlimit="10" stroke-linecap="round" stroke-linejoin="round"/>
<path d="M113.325 105.84L112.406 105.548" stroke="#33363A" stroke-width="3" stroke-miterlimit="10" stroke-linecap="round" stroke-linejoin="round"/>
<path d="M108.508 104.24L108.87 104.355" stroke="#33363A" stroke-width="3" stroke-miterlimit="10" stroke-linecap="round" stroke-linejoin="round"/>
<path d="M113.862 113.169L119.146 114.959" stroke="#33363A" stroke-width="3" stroke-miterlimit="10" stroke-linecap="round" stroke-linejoin="round"/>
<path d="M110.022 111.811L109.103 111.519" stroke="#33363A" stroke-width="3" stroke-miterlimit="10" stroke-linecap="round" stroke-linejoin="round"/>
<path d="M110.334 119.064L115.617 120.854" stroke="#33363A" stroke-width="3" stroke-miterlimit="10" stroke-linecap="round" stroke-linejoin="round"/>
<path d="M107.313 117.984L106.394 117.69" stroke="#33363A" stroke-width="3" stroke-miterlimit="10" stroke-linecap="round" stroke-linejoin="round"/>
<path d="M106.436 124.833L111.717 126.623" stroke="#33363A" stroke-width="3" stroke-miterlimit="10" stroke-linecap="round" stroke-linejoin="round"/>
<path d="M131.826 120.282C131.826 133.967 118.77 134.526 102.669 134.526C86.5671 134.526 73.5127 133.968 73.5127 120.282C73.5127 106.598 86.5671 95.5024 102.669 95.5024C118.77 95.5024 131.826 106.598 131.826 120.282Z" fill="#C17E25"/>
<path d="M131.826 120.282C131.826 133.967 118.77 134.526 102.669 134.526C86.5671 134.526 73.5127 133.968 73.5127 120.282C73.5127 106.598 86.5671 95.5024 102.669 95.5024C118.77 95.5024 131.826 106.598 131.826 120.282Z" fill="white"/>
<path d="M131.826 120.282C131.826 133.967 118.77 134.526 102.669 134.526C86.5671 134.526 73.5127 133.968 73.5127 120.282C73.5127 106.599 86.5671 120.351 102.669 120.351C118.77 120.351 131.826 106.598 131.826 120.282Z" fill="#F4F3E9"/>
<path d="M102.669 127.438C88.1951 127.438 76.1855 116.328 73.9062 124.021C76.1767 134.068 88.1878 134.526 102.669 134.526C117.152 134.526 129.162 134.068 131.434 124.021C129.151 116.328 117.142 127.438 102.669 127.438Z" fill="#E0DECE"/>
<path d="M131.826 120.282C131.826 133.967 118.77 134.526 102.669 134.526C86.5671 134.526 73.5127 133.968 73.5127 120.282C73.5127 106.598 86.5671 95.5024 102.669 95.5024C118.77 95.5024 131.826 106.598 131.826 120.282Z" stroke="#33363A" stroke-width="3" stroke-miterlimit="10" stroke-linecap="round" stroke-linejoin="round"/>
<path d="M116.789 116.266C116.789 129.474 110.467 130.92 102.669 130.92C94.8703 130.92 88.5487 129.473 88.5487 116.266C88.5487 109.5 94.8703 104.016 102.669 104.016C110.467 104.016 116.789 109.5 116.789 116.266Z" fill="#D3D1C1"/>
<path d="M116.789 116.266C116.789 123.03 110.467 126.011 102.669 126.011C94.8703 126.011 88.5487 123.03 88.5487 116.266C88.5487 109.5 94.8703 104.016 102.669 104.016C110.467 104.016 116.789 109.5 116.789 116.266Z" fill="#FFBC00"/>
<path d="M102.669 106.371C110.005 106.371 116.031 111.223 116.72 117.428C116.766 117.053 116.789 116.667 116.789 116.266C116.789 109.5 110.467 104.016 102.669 104.016C94.8703 104.016 88.5487 109.499 88.5487 116.266C88.5487 116.667 88.5735 117.053 88.6175 117.428C89.3063 111.223 95.3343 106.371 102.669 106.371Z" fill="#FFCE00"/>
<path d="M116.789 116.265C116.789 123.029 110.467 126.011 102.669 126.011C94.8703 126.011 88.5487 123.029 88.5487 116.265C88.5487 109.5 94.8703 116.244 102.669 116.244C110.467 116.244 116.789 109.5 116.789 116.265Z" fill="#FF9100"/>
<path d="M116.789 116.266C116.789 123.03 110.467 126.011 102.669 126.011C94.8703 126.011 88.5487 123.03 88.5487 116.266C88.5487 109.5 94.8703 104.016 102.669 104.016C110.467 104.016 116.789 109.5 116.789 116.266Z" stroke="#33363A" stroke-width="3" stroke-miterlimit="10" stroke-linecap="round" stroke-linejoin="round"/>
<path d="M92.7183 112.498C93.2151 108.985 98.6903 106.55 101.223 106.55" stroke="#FFEF5A" stroke-width="4" stroke-miterlimit="10" stroke-linecap="round" stroke-linejoin="round"/>
<path d="M92.5111 116.097C92.5359 115.925 92.7999 115.808 92.9239 115.808" stroke="#FFEF5A" stroke-width="4" stroke-miterlimit="10" stroke-linecap="round" stroke-linejoin="round"/>
<path d="M92.7144 118.778C92.7208 118.736 92.7848 118.708 92.8144 118.708" stroke="#FFEF5A" stroke-width="2" stroke-miterlimit="10" stroke-linecap="round" stroke-linejoin="round"/>
</svg>
