<svg width="24" height="25" viewBox="0 0 24 25" fill="none" xmlns="http://www.w3.org/2000/svg">
<path fill-rule="evenodd" clip-rule="evenodd" d="M11.7688 3.73123C11.4605 3.42292 10.9606 3.42292 10.6523 3.73123C10.344 4.03954 10.344 4.53941 10.6523 4.84772L10.8866 5.08207C7.2725 5.61991 4.5 8.73618 4.5 12.5C4.5 14.9937 5.71783 17.2031 7.58775 18.5654C7.94016 18.8221 8.43397 18.7446 8.69072 18.3922C8.94747 18.0398 8.86992 17.546 8.51751 17.2892C7.03797 16.2113 6.07895 14.4677 6.07895 12.5C6.07895 9.62299 8.13086 7.22524 10.8511 6.69034L10.6523 6.88913C10.344 7.19743 10.344 7.6973 10.6523 8.00561C10.9606 8.31392 11.4605 8.31392 11.7688 8.00561L13.3477 6.42666C13.656 6.11835 13.656 5.61849 13.3477 5.31018L11.7688 3.73123ZM16.4123 6.4346C16.0599 6.17785 15.566 6.25539 15.3093 6.60779C15.0525 6.9602 15.1301 7.45401 15.4825 7.71076C16.962 8.78872 17.9211 10.5323 17.9211 12.5C17.9211 15.377 15.8691 17.7748 13.1489 18.3097L13.3477 18.1109C13.656 17.8026 13.656 17.3027 13.3477 16.9944C13.0394 16.6861 12.5395 16.6861 12.2312 16.9944L10.6523 18.5733C10.344 18.8816 10.344 19.3815 10.6523 19.6898L12.2312 21.2688C12.5395 21.5771 13.0394 21.5771 13.3477 21.2688C13.656 20.9605 13.656 20.4606 13.3477 20.1523L13.1134 19.9179C16.7275 19.3801 19.5 16.2638 19.5 12.5C19.5 10.0063 18.2821 7.79696 16.4123 6.4346ZM9.925 11.9983C10.234 11.0476 11.1432 10.358 12.2178 10.358H13.6396C14.2234 10.358 14.732 10.0379 14.9891 9.56657C15.0369 9.47953 15.175 9.47551 15.2105 9.56791C15.3965 10.0567 15.499 10.599 15.499 11.1694C15.499 13.3186 14.0375 15.0621 12.2314 15.0714H12.2178C11.1008 15.0714 10.1615 14.3256 9.89082 13.3146C9.43828 13.7257 9.15527 14.3122 9.15527 14.9643V15.1786C9.15527 15.3567 9.00898 15.4999 8.82715 15.4999C8.64531 15.4999 8.49902 15.3567 8.49902 15.1786V14.9643C8.49902 13.9587 9.02266 13.0736 9.81563 12.5554C10.1096 12.3639 10.4377 12.2233 10.7918 12.1443C11.0051 12.0974 11.2252 12.072 11.4521 12.072H12.4365H12.6553C12.7756 12.072 12.874 11.9755 12.874 11.8577C12.874 11.7399 12.7756 11.6435 12.6553 11.6435H11.4521C10.9025 11.6435 10.3844 11.7707 9.925 11.9983Z" fill="#0D0D0D"/>
</svg>
